<svg width="346" height="346" viewBox="0 0 346 346" fill="none" xmlns="http://www.w3.org/2000/svg">
<path d="M345.26 172.61C345.264 206.754 335.143 240.133 316.176 268.525C297.209 296.916 270.249 319.046 238.704 332.115C207.16 345.183 172.449 348.604 138.96 341.945C105.472 335.285 74.7101 318.844 50.5658 294.701C26.4214 270.558 9.97882 239.798 3.31736 206.31C-3.3441 172.822 0.0748072 138.11 13.1417 106.565C26.2086 75.0201 48.3366 48.0584 76.7272 29.0899C105.118 10.1214 138.496 -0.00197737 172.64 2.89704e-07C218.42 2.12886e-07 262.325 18.1853 294.697 50.5557C327.07 82.9261 345.257 126.83 345.26 172.61Z" fill="#1BA6B8"/>
</svg>
