<svg width="372" height="429" viewBox="0 0 372 429" fill="none" xmlns="http://www.w3.org/2000/svg">
<g clip-path="url(#clip0_1385_4873)">
<path d="M12.7801 235.83C8.72776 231.779 5.51322 226.97 3.32005 221.677C1.12687 216.383 -0.00195312 210.71 -0.00195312 204.98C-0.00195312 199.25 1.12687 193.577 3.32005 188.284C5.51322 182.99 8.72776 178.181 12.7801 174.13L105.1 81.8101C113.282 73.6295 124.379 69.0342 135.949 69.0352C147.519 69.0361 158.614 73.6332 166.795 81.8151C174.976 89.997 179.571 101.094 179.57 112.664C179.569 124.234 174.972 135.329 166.79 143.51L74.4701 235.83C70.4202 239.882 65.6116 243.096 60.3192 245.289C55.0267 247.482 49.3539 248.611 43.6251 248.611C37.8962 248.611 32.2235 247.482 26.931 245.289C21.6385 243.096 16.8299 239.882 12.7801 235.83" fill="#F1881A"/>
<path d="M109.511 262.49C105.458 258.439 102.244 253.63 100.051 248.337C97.8573 243.043 96.7285 237.37 96.7285 231.64C96.7285 225.91 97.8573 220.237 100.051 214.944C102.244 209.65 105.458 204.841 109.511 200.79L297.511 12.7901C305.691 4.60949 316.786 0.0136719 328.356 0.0136719C339.925 0.0136719 351.02 4.60949 359.201 12.7901C367.381 20.9707 371.977 32.066 371.977 43.6351C371.977 55.2042 367.381 66.2995 359.201 74.4801L171.201 262.48C167.15 266.532 162.34 269.747 157.047 271.94C151.754 274.133 146.08 275.262 140.351 275.262C134.621 275.262 128.947 274.133 123.654 271.94C118.361 269.747 113.551 266.532 109.501 262.48" fill="#1BA6B8"/>
<path d="M80.3593 415.39C76.3073 411.34 73.093 406.531 70.8999 401.239C68.7069 395.947 67.5781 390.274 67.5781 384.545C67.5781 378.816 68.7069 373.143 70.8999 367.851C73.093 362.558 76.3073 357.75 80.3593 353.7L268.359 165.7C272.398 161.593 277.21 158.327 282.518 156.089C287.826 153.852 293.524 152.687 299.284 152.663C305.045 152.639 310.752 153.756 316.079 155.95C321.405 158.143 326.244 161.369 330.317 165.442C334.39 169.515 337.616 174.354 339.81 179.681C342.003 185.007 343.12 190.715 343.096 196.475C343.072 202.235 341.907 207.933 339.67 213.241C337.432 218.549 334.166 223.361 330.059 227.4L142.059 415.4C138.009 419.452 133.199 422.667 127.906 424.86C122.613 427.053 116.939 428.182 111.209 428.182C105.48 428.182 99.806 427.053 94.5127 424.86C89.2194 422.667 84.41 419.452 80.3593 415.4" fill="#333333"/>
</g>
<defs>
<clipPath id="clip0_1385_4873">
<rect width="372" height="428.17" fill="white"/>
</clipPath>
</defs>
</svg>
