<svg width="346" height="433" viewBox="0 0 346 433" fill="none" xmlns="http://www.w3.org/2000/svg">
<path d="M345.26 172.61C345.264 206.754 335.143 240.133 316.176 268.525C297.209 296.916 270.249 319.046 238.704 332.115C207.16 345.183 172.449 348.604 138.96 341.945C105.472 335.285 74.7101 318.844 50.5658 294.701C26.4214 270.558 9.97882 239.798 3.31736 206.31C-3.3441 172.822 0.0748072 138.11 13.1417 106.565C26.2086 75.02 48.3366 48.0584 76.7272 29.0899C105.118 10.1214 138.496 -0.00197737 172.64 2.89704e-07C218.42 2.12886e-07 262.325 18.1853 294.697 50.5557C327.07 82.9261 345.257 126.83 345.26 172.61" fill="#1BA6B8"/>
<path d="M103.07 336.92C103.07 318.05 108.666 299.603 119.15 283.913C129.634 268.223 144.535 255.994 161.968 248.772C179.402 241.551 198.586 239.662 217.094 243.343C235.602 247.024 252.602 256.111 265.945 269.455C279.289 282.798 288.376 299.799 292.057 318.306C295.738 336.814 293.849 355.998 286.628 373.432C279.406 390.866 267.177 405.767 251.487 416.25C235.797 426.734 217.351 432.33 198.48 432.33C173.185 432.301 148.934 422.239 131.047 404.353C113.161 386.466 103.099 362.215 103.07 336.92M290.61 336.92C290.61 318.696 285.206 300.881 275.081 285.729C264.956 270.576 250.565 258.766 233.728 251.793C216.891 244.819 198.365 242.995 180.491 246.551C162.617 250.107 146.2 258.884 133.314 271.771C120.428 284.658 111.654 301.076 108.1 318.95C104.545 336.824 106.372 355.351 113.347 372.187C120.322 389.023 132.134 403.413 147.287 413.536C162.441 423.66 180.256 429.062 198.48 429.06C222.907 429.031 246.326 419.313 263.597 402.04C280.869 384.766 290.584 361.347 290.61 336.92" fill="#333333"/>
<path d="M113.742 336.92C113.74 320.168 118.706 303.791 128.012 289.86C137.318 275.93 150.545 265.073 166.022 258.66C181.499 252.248 198.529 250.569 214.96 253.836C231.391 257.103 246.484 265.169 258.331 277.015C270.177 288.86 278.245 303.952 281.514 320.382C284.783 336.813 283.106 353.843 276.696 369.321C270.285 384.798 259.429 398.027 245.5 407.335C231.571 416.642 215.195 421.61 198.442 421.61C175.987 421.586 154.459 412.656 138.58 396.779C122.701 380.902 113.769 359.375 113.742 336.92ZM279.862 336.92C279.862 320.817 275.087 305.075 266.14 291.685C257.194 278.296 244.478 267.86 229.6 261.698C214.723 255.535 198.352 253.923 182.558 257.064C166.764 260.206 152.256 267.961 140.87 279.347C129.483 290.734 121.728 305.242 118.587 321.036C115.445 336.83 117.057 353.201 123.22 368.078C129.382 382.956 139.818 395.672 153.208 404.618C166.597 413.565 182.339 418.34 198.442 418.34C220.028 418.314 240.722 409.727 255.986 394.463C271.249 379.2 279.836 358.506 279.862 336.92Z" fill="#333333"/>
<path d="M124.5 336.92C124.5 322.284 128.84 307.977 136.971 295.808C145.102 283.639 156.66 274.154 170.181 268.553C183.703 262.952 198.582 261.487 212.937 264.342C227.291 267.197 240.477 274.245 250.826 284.594C261.175 294.943 268.223 308.129 271.078 322.483C273.933 336.838 272.468 351.717 266.867 365.239C261.266 378.76 251.781 390.317 239.612 398.449C227.443 406.58 213.136 410.92 198.5 410.92C178.879 410.904 160.066 403.103 146.192 389.228C132.317 375.354 124.516 356.541 124.5 336.92ZM269.18 336.92C269.18 322.934 265.033 309.263 257.263 297.635C249.492 286.006 238.448 276.943 225.527 271.591C212.606 266.24 198.388 264.84 184.671 267.569C170.955 270.299 158.356 277.034 148.467 286.924C138.578 296.814 131.845 309.414 129.117 323.131C126.39 336.848 127.792 351.066 133.145 363.986C138.499 376.907 147.563 387.95 159.193 395.718C170.822 403.487 184.494 407.632 198.48 407.63C217.226 407.609 235.198 400.152 248.453 386.895C261.707 373.639 269.161 355.666 269.18 336.92" fill="#333333"/>
<path d="M135.211 336.92C135.209 324.406 138.918 312.172 145.869 301.766C152.82 291.36 162.701 283.249 174.262 278.459C185.823 273.668 198.544 272.414 210.818 274.854C223.092 277.294 234.367 283.319 243.216 292.167C252.066 301.016 258.092 312.289 260.534 324.563C262.977 336.836 261.724 349.558 256.936 361.12C252.147 372.681 244.038 382.563 233.633 389.516C223.228 396.469 210.995 400.18 198.481 400.18C181.708 400.161 165.627 393.491 153.766 381.631C141.905 369.772 135.232 353.693 135.211 336.92M258.471 336.92C258.471 325.053 254.952 313.452 248.359 303.585C241.766 293.719 232.396 286.028 221.432 281.487C210.468 276.946 198.404 275.757 186.766 278.073C175.127 280.388 164.436 286.102 156.045 294.493C147.653 302.884 141.939 313.575 139.624 325.214C137.309 336.853 138.497 348.917 143.038 359.881C147.579 370.844 155.27 380.215 165.137 386.808C175.004 393.401 186.604 396.92 198.471 396.92C214.379 396.904 229.631 390.577 240.88 379.329C252.129 368.08 258.455 352.828 258.471 336.92" fill="#333333"/>
<path d="M145.93 336.92C145.93 326.527 149.012 316.367 154.786 307.725C160.56 299.083 168.767 292.348 178.37 288.37C187.972 284.393 198.538 283.352 208.732 285.38C218.925 287.408 228.289 292.412 235.638 299.762C242.987 307.111 247.992 316.474 250.02 326.668C252.048 336.862 251.007 347.428 247.03 357.03C243.052 366.632 236.317 374.84 227.675 380.614C219.033 386.388 208.873 389.47 198.48 389.47C184.547 389.454 171.19 383.913 161.339 374.061C151.487 364.209 145.946 350.852 145.93 336.92M247.75 336.92C247.75 327.173 244.859 317.645 239.444 309.541C234.028 301.436 226.331 295.12 217.326 291.39C208.321 287.661 198.412 286.686 188.852 288.588C179.292 290.49 170.511 295.185 163.62 302.077C156.728 308.97 152.036 317.752 150.135 327.312C148.235 336.872 149.212 346.781 152.944 355.786C156.675 364.79 162.993 372.486 171.098 377.9C179.204 383.314 188.733 386.202 198.48 386.2C211.542 386.182 224.064 380.983 233.298 371.745C242.533 362.506 247.726 349.983 247.74 336.92" fill="#333333"/>
<path d="M156.641 336.92C156.641 328.645 159.095 320.556 163.692 313.675C168.289 306.794 174.824 301.432 182.469 298.265C190.114 295.098 198.527 294.27 206.643 295.884C214.759 297.498 222.215 301.483 228.066 307.335C233.917 313.186 237.902 320.641 239.517 328.758C241.131 336.874 240.303 345.286 237.136 352.932C233.969 360.577 228.606 367.111 221.726 371.709C214.845 376.306 206.756 378.76 198.481 378.76C187.387 378.75 176.751 374.338 168.907 366.494C161.063 358.65 156.651 348.014 156.641 336.92M237.041 336.92C237.041 329.294 234.779 321.838 230.542 315.497C226.305 309.156 220.283 304.214 213.237 301.295C206.191 298.377 198.438 297.613 190.958 299.101C183.478 300.589 176.607 304.261 171.215 309.654C165.822 315.047 162.149 321.917 160.662 329.397C159.174 336.877 159.937 344.63 162.856 351.676C165.774 358.722 170.717 364.745 177.058 368.982C183.399 373.219 190.854 375.48 198.481 375.48C208.703 375.467 218.504 371.4 225.732 364.172C232.961 356.943 237.027 347.143 237.041 336.92" fill="#333333"/>
<path d="M167.359 336.92C167.351 330.763 169.17 324.742 172.585 319.62C175.999 314.497 180.857 310.502 186.543 308.14C192.228 305.779 198.487 305.157 204.526 306.353C210.565 307.549 216.114 310.51 220.47 314.86C224.827 319.211 227.794 324.756 228.999 330.794C230.203 336.832 229.589 343.091 227.234 348.78C224.88 354.468 220.891 359.331 215.773 362.752C210.654 366.174 204.636 368 198.479 368C190.228 367.992 182.317 364.711 176.483 358.876C170.649 353.042 167.367 345.131 167.359 336.88M226.359 336.88C226.359 331.371 224.726 325.986 221.665 321.406C218.604 316.826 214.254 313.256 209.165 311.149C204.075 309.041 198.475 308.49 193.072 309.566C187.67 310.641 182.707 313.295 178.813 317.19C174.918 321.086 172.267 326.05 171.193 331.453C170.12 336.856 170.673 342.456 172.782 347.544C174.892 352.633 178.463 356.982 183.044 360.041C187.625 363.1 193.011 364.732 198.519 364.73C205.902 364.719 212.978 361.781 218.197 356.56C223.416 351.34 226.351 344.262 226.359 336.88" fill="#333333"/>
<path d="M178.07 336.92C178.07 332.883 179.267 328.937 181.51 325.581C183.753 322.224 186.94 319.608 190.67 318.063C194.399 316.519 198.503 316.114 202.462 316.902C206.421 317.689 210.058 319.633 212.912 322.488C215.767 325.342 217.711 328.979 218.498 332.938C219.286 336.897 218.881 341.001 217.337 344.73C215.792 348.46 213.176 351.647 209.82 353.89C206.463 356.133 202.517 357.33 198.48 357.33C193.069 357.324 187.881 355.172 184.054 351.346C180.228 347.52 178.076 342.331 178.07 336.92M215.61 336.92C215.61 333.532 214.606 330.22 212.723 327.403C210.841 324.586 208.166 322.39 205.036 321.094C201.906 319.797 198.461 319.458 195.138 320.119C191.816 320.78 188.763 322.411 186.368 324.807C183.972 327.203 182.34 330.255 181.679 333.578C181.018 336.901 181.358 340.345 182.654 343.475C183.951 346.605 186.146 349.281 188.963 351.163C191.78 353.045 195.092 354.05 198.48 354.05C203.022 354.044 207.376 352.238 210.587 349.027C213.799 345.815 215.605 341.461 215.61 336.92" fill="#333333"/>
</svg>
