<svg width="243" height="266" viewBox="0 0 243 266" fill="none" xmlns="http://www.w3.org/2000/svg">
<path d="M139.457 263.98C137.625 263.134 135.979 261.935 134.612 260.451C133.245 258.968 132.184 257.229 131.491 255.334C130.798 253.44 130.486 251.427 130.573 249.411C130.66 247.396 131.144 245.417 131.997 243.589L213.057 69.7395C214.781 66.0503 217.9 63.1971 221.727 61.8075C225.555 60.4178 229.778 60.6056 233.467 62.3295C237.156 64.0534 240.009 67.1722 241.399 70.9998C242.789 74.8275 242.601 79.0503 240.877 82.7395L159.837 256.559C158.118 260.245 155.005 263.097 151.183 264.489C147.361 265.88 143.144 265.697 139.457 263.98" fill="#333333"/>
<path d="M8.87531 203.049C7.04926 202.202 5.40805 201.003 4.0454 199.521C2.68274 198.039 1.62532 196.303 0.933526 194.412C0.241726 192.522 -0.0709086 190.513 0.013472 188.502C0.0978527 186.49 0.577596 184.515 1.42531 182.689L82.4953 8.84925C84.2192 5.16141 87.3375 2.30943 91.1642 0.920727C94.9909 -0.46798 99.2125 -0.279666 102.9 1.44424C106.588 3.16815 109.44 6.28644 110.829 10.1131C112.218 13.9398 112.029 18.1614 110.305 21.8492L29.2453 195.659C28.3933 197.482 27.1905 199.119 25.7056 200.477C24.2207 201.835 22.4828 202.888 20.5912 203.574C18.6996 204.26 16.6913 204.567 14.681 204.477C12.6708 204.387 10.698 203.902 8.87531 203.049" fill="#1BA6B8"/>
<path d="M89.2265 201.189C85.5404 199.475 82.6858 196.368 81.2906 192.55C79.8954 188.732 80.0738 184.516 81.7865 180.829L132.726 71.5992C133.58 69.7732 134.785 68.1332 136.272 66.7728C137.76 65.4124 139.501 64.3583 141.395 63.6707C143.29 62.9831 145.302 62.6754 147.315 62.7652C149.329 62.8551 151.305 63.3406 153.131 64.1942C154.957 65.0478 156.598 66.2527 157.958 67.7401C159.318 69.2275 160.372 70.9683 161.06 72.8631C161.748 74.7579 162.055 76.7696 161.965 78.7832C161.876 80.7969 161.39 82.7732 160.536 84.5992L109.606 193.809C107.882 197.49 104.766 200.335 100.944 201.719C97.1227 203.103 92.9078 202.912 89.2265 201.189" fill="#1BA6B8"/>
<path d="M188.255 30.7293C186.783 33.9099 184.4 36.5823 181.409 38.4081C178.417 40.2339 174.951 41.131 171.449 40.9859C167.947 40.8407 164.567 39.6598 161.737 37.5926C158.907 35.5255 156.754 32.6651 155.55 29.3735C154.346 26.0819 154.146 22.5071 154.975 19.1018C155.804 15.6965 157.625 12.6138 160.207 10.2438C162.789 7.87389 166.016 6.32335 169.48 5.7885C172.944 5.25365 176.488 5.75855 179.665 7.23927C181.772 8.21703 183.665 9.60037 185.237 11.3102C186.81 13.0201 188.029 15.023 188.827 17.2044C189.625 19.3859 189.985 21.7031 189.887 24.0238C189.789 26.3444 189.234 28.623 188.255 30.7293" fill="#F1881A"/>
</svg>
