<svg xmlns="http://www.w3.org/2000/svg" xmlns:xlink="http://www.w3.org/1999/xlink" viewBox="0 0 27.72 17.45"><defs><style>.cls-1{fill:none;}.cls-2{clip-path:url(#clip-path);}.cls-3{fill:#fff;}</style><clipPath id="clip-path" transform="translate(0 0)"><rect class="cls-1" width="27.72" height="17.45"/></clipPath></defs><title>ico-hamburger</title><g id="Layer_2" data-name="Layer 2"><g id="Layer_1-2" data-name="Layer 1"><g class="cls-2"><path class="cls-3" d="M2.73,16v-.11A1.48,1.48,0,0,1,4.2,14.38H23.52A1.49,1.49,0,0,1,25,15.86V16a1.48,1.48,0,0,1-1.48,1.48H4.2A1.47,1.47,0,0,1,2.73,16" transform="translate(0 0)"/><path class="cls-3" d="M2.73,1.59V1.48A1.47,1.47,0,0,1,4.2,0H23.52A1.48,1.48,0,0,1,25,1.48v.11a1.48,1.48,0,0,1-1.48,1.47H4.2A1.47,1.47,0,0,1,2.73,1.59" transform="translate(0 0)"/><path class="cls-3" d="M6.3,8.78V8.67A1.47,1.47,0,0,1,7.77,7.19H20a1.48,1.48,0,0,1,1.48,1.48v.11A1.48,1.48,0,0,1,20,10.26H7.77A1.48,1.48,0,0,1,6.3,8.78" transform="translate(0 0)"/><path class="cls-3" d="M26,10.49a1.77,1.77,0,1,1,1.77-1.77A1.76,1.76,0,0,1,26,10.49" transform="translate(0 0)"/><path class="cls-3" d="M1.77,10.49A1.77,1.77,0,1,1,3.54,8.72a1.77,1.77,0,0,1-1.77,1.77" transform="translate(0 0)"/></g></g></g></svg>