<svg xmlns="http://www.w3.org/2000/svg" xmlns:xlink="http://www.w3.org/1999/xlink" viewBox="0 0 59.48 32.88"><defs><style>.cls-1{fill:none;}.cls-2{clip-path:url(#clip-path);}.cls-3{fill:#a5a4a6;}.cls-4{fill:#0caec4;}.cls-5{fill:#9b9a9b;}.cls-6{fill:#c6c5c7;}.cls-7{fill:#888687;}.cls-8{fill:#979593;}</style><clipPath id="clip-path" transform="translate(0 0)"><rect class="cls-1" width="59.48" height="32.88"/></clipPath></defs><title>logo-clymb</title><g id="Layer_2" data-name="Layer 2"><g id="Layer_1-2" data-name="Layer 1"><g class="cls-2"><path class="cls-3" d="M1.39,11.15A4.39,4.39,0,0,0,0,14.35v5.24a4.47,4.47,0,0,0,.48,2l2.58-6.34Z" transform="translate(0 0)"/><polygon class="cls-4" points="23.13 9.96 19.31 9.96 22.78 18.48 24.71 13.82 23.13 9.96"/><path class="cls-5" d="M27,10h0Z" transform="translate(0 0)"/><polygon class="cls-6" points="23.13 19.34 23.13 24.08 25.07 24.08 23.13 19.34"/><polygon class="cls-6" points="26.96 19.34 30.78 9.96 26.96 9.96 25.04 14.65 26.96 19.34"/><polygon class="cls-7" points="26.96 19.34 25.04 14.65 23.13 19.34 25.07 24.08 26.96 24.08 26.96 19.34"/><polygon class="cls-5" points="44.28 9.96 44.28 9.96 44.09 10.41 44.28 9.96"/><polygon class="cls-7" points="38.2 13.82 36.63 9.96 32.8 9.96 36.27 18.48 38.2 13.82"/><polygon class="cls-6" points="44.09 10.41 44.28 9.96 40.45 9.96 38.54 14.65 40.45 19.34 44.09 10.41"/><polygon class="cls-3" points="38.54 14.65 36.62 19.33 38.54 24.02 40.45 19.33 38.54 14.65"/><polygon class="cls-6" points="20.47 24.08 21.73 24.08 21.73 21.05 21.72 21.05 20.47 24.08"/><polygon class="cls-6" points="45.66 14.7 41.83 24.08 45.66 24.08 45.66 14.7"/><path class="cls-7" d="M7.66,18.87v.36A1.83,1.83,0,0,1,6.06,21v3.49a6.49,6.49,0,0,0,.77-.05,7,7,0,0,0,2.67-.9,3.75,3.75,0,0,0,2-3.31v-1.4Z" transform="translate(0 0)"/><path class="cls-7" d="M3.83,15.16v-.35A1.83,1.83,0,0,1,5.42,13V9.46a7,7,0,0,0-3.35,1.17h0a4.89,4.89,0,0,0-.68.52l2.44,6Z" transform="translate(0 0)"/><path class="cls-6" d="M3.83,19.23v-2.1l-.77-1.88L.48,21.59a4.41,4.41,0,0,0,1.94,1.95h0a6.94,6.94,0,0,0,3,1V21a1.83,1.83,0,0,1-1.59-1.81" transform="translate(0 0)"/><path class="cls-3" d="M7.66,14.81v.35h3.82V13.71a4,4,0,0,0-2.06-3.33,7,7,0,0,0-3.36-.94V13a1.83,1.83,0,0,1,1.6,1.81" transform="translate(0 0)"/><polygon class="cls-6" points="12.76 9.96 16.58 19.34 16.58 9.96 12.76 9.96"/><polygon class="cls-3" points="12.76 9.96 12.76 24.08 15.64 17.02 12.76 9.96"/><polygon class="cls-7" points="12.76 24.08 16.58 24.08 16.58 19.34 15.64 17.02 12.76 24.08"/><polygon class="cls-7" points="17.22 24.08 18.52 24.08 17.28 21.05 17.22 21.05 17.22 24.08"/><polygon class="cls-6" points="20.47 24.08 21.72 21.05 17.28 21.05 18.52 24.08 20.47 24.08"/><polygon class="cls-3" points="45.66 14.7 45.66 9.96 41.83 9.96 44.71 17.02 45.66 14.7"/><polygon class="cls-7" points="41.83 9.96 41.83 9.96 41.83 24.08 44.71 17.02 41.83 9.96"/><polygon class="cls-3" points="51.39 15.48 51.39 18.35 53.58 18.35 52.41 15.48 51.39 15.48"/><path class="cls-7" d="M55,10H51.39v3h2.52a1.26,1.26,0,1,1,0,2.51h-1.5l1.17,2.86h.77a1.52,1.52,0,0,1,1,.31l2.85-7A3.84,3.84,0,0,0,55,10" transform="translate(0 0)"/><path class="cls-6" d="M57.44,16.76a3.59,3.59,0,0,0,1.35-2.85,4,4,0,0,0-.62-2.24l-2.85,7a1.29,1.29,0,0,1,.49,1A1.31,1.31,0,0,1,54.67,21l1.22,3a3.78,3.78,0,0,0,3.45-4.08,3.57,3.57,0,0,0-1.9-3.18" transform="translate(0 0)"/><path class="cls-3" d="M54.67,21l-.32,0h-3v3H55a6.19,6.19,0,0,0,.88-.06Z" transform="translate(0 0)"/><polygon class="cls-6" points="46.93 9.96 46.93 14.7 47.88 17.02 50.76 9.96 46.93 9.96"/><polygon class="cls-3" points="47.88 17.02 50.76 24.08 50.76 9.96 47.88 17.02"/><polygon class="cls-7" points="50.76 24.08 46.93 14.7 46.93 24.08 50.76 24.08"/><polygon class="cls-3" points="35.25 9.96 31.42 9.96 31.42 15.96 33.08 20.02 35.25 14.7 35.25 9.96"/><polygon class="cls-6" points="33.08 20.02 34.73 24.08 35.25 24.08 35.25 14.7 33.08 20.02"/><polygon class="cls-7" points="34.73 24.08 31.42 15.96 31.42 24.08 34.73 24.08"/><path class="cls-4" d="M.6,27.77H.94v-.33H.6Zm.48,0h.34v-.33H1.08Zm22.76-.85v-.24h-.13v.2s0,0,0,0H23.6v-.23h-.13v.23h-.08a0,0,0,0,1,0,0v-.2h-.13v.24a.08.08,0,0,0,.09.09h.44s.08,0,.08-.09m4.17.85h.33v-.33H28Zm.47,0h.34v-.33h-.34ZM1.16,28.92a.52.52,0,0,1-.29-.41.18.18,0,0,1,.21-.2h.08Zm26.66.33h1V28h-.34v.94H26.73V28H26.4v.94H26v-.71h-.34v.71h-.38v-.49H25v.49H23.7V27.44h-.34v1.48H1.5V28H1.1c-.42,0-.58.22-.58.52a.76.76,0,0,0,.64.75v.1c0,.09,0,.11-.15.11H.48c-.1,0-.13,0-.15-.11v-.92H0v.88a.45.45,0,0,0,.51.49H1a.46.46,0,0,0,.52-.49v-.06H27.82Zm2.38-.33h-.09q-.18,0-.18-.21v-.19q0-.21.18-.21h.09Zm.34.39V28h-.42a.5.5,0,0,0-.53.51v.25a.49.49,0,0,0,.53.51h.08v.1a.14.14,0,0,1,0,.07s-.06,0-.12,0h-.47v.34H30a.45.45,0,0,0,.51-.49M33,27.77h.34v-.33H33Zm.48,0h.34v-.33h-.34Zm22.74-.85v-.24H56v.2s0,0,0,0h-.08v-.23h-.13v.23h-.08a0,0,0,0,1,0,0v-.2h-.13v.24c0,.06,0,.09.08.09h.44a.08.08,0,0,0,.09-.09m-22.66,2a.5.5,0,0,1-.29-.41.18.18,0,0,1,.21-.2h.08Zm25.71.33v-.76A.5.5,0,0,0,58.7,28H57.35v.33h1.36q.18,0,.18.21v.4H56.06V27.44h-.34v1.48H33.86V28h-.39c-.43,0-.59.22-.59.52a.76.76,0,0,0,.64.75v.1c0,.09,0,.11-.14.11h-.54c-.1,0-.13,0-.15-.11v-.92h-.33v.88a.45.45,0,0,0,.51.49h.47a.46.46,0,0,0,.52-.49v-.06H59.23Z" transform="translate(0 0)"/><rect class="cls-4" x="0.04" y="31.06" width="0.35" height="1.8"/><polygon class="cls-4" points="1.85 31.06 2.92 32.31 2.92 31.06 3.26 31.06 3.26 32.86 2.96 32.86 1.89 31.58 1.89 32.86 1.55 32.86 1.55 31.06 1.85 31.06"/><path class="cls-4" d="M5,31.06a1.15,1.15,0,0,1,.5.11.83.83,0,0,1,.34.33.88.88,0,0,1,.12.46.91.91,0,0,1-.12.47.84.84,0,0,1-.35.32,1.19,1.19,0,0,1-.51.11H4.21v-1.8Zm0,1.53a.63.63,0,0,0,.47-.18A.61.61,0,0,0,5.56,32a.64.64,0,0,0-.17-.46.69.69,0,0,0-.48-.17H4.55v1.26Z" transform="translate(0 0)"/><path class="cls-4" d="M7.44,31a1,1,0,0,1,.5.11.86.86,0,0,1,.35.33.92.92,0,0,1,.14.48,1,1,0,0,1-.13.47,1,1,0,0,1-.36.33,1.07,1.07,0,0,1-.51.12,1.13,1.13,0,0,1-.51-.12.9.9,0,0,1-.48-.8.88.88,0,0,1,.13-.47.86.86,0,0,1,.35-.33A1.08,1.08,0,0,1,7.44,31M6.8,32a.66.66,0,0,0,.08.32.54.54,0,0,0,.23.22.58.58,0,0,0,.33.08.64.64,0,0,0,.45-.17A.61.61,0,0,0,8.07,32,.66.66,0,0,0,8,31.64a.63.63,0,0,0-.23-.23.72.72,0,0,0-.33-.07.62.62,0,0,0-.33.08.52.52,0,0,0-.22.22A.66.66,0,0,0,6.8,32" transform="translate(0 0)"/><path class="cls-4" d="M10,31a1,1,0,0,1,.5.11,1,1,0,0,1,.36.33A1,1,0,0,1,11,32a1,1,0,0,1-.13.47,1,1,0,0,1-.36.33,1.07,1.07,0,0,1-.51.12,1.06,1.06,0,0,1-.5-.12.83.83,0,0,1-.36-.33A.85.85,0,0,1,9,32a.88.88,0,0,1,.13-.47.86.86,0,0,1,.35-.33A1.08,1.08,0,0,1,10,31M9.36,32a.66.66,0,0,0,.08.32.54.54,0,0,0,.23.22.6.6,0,0,0,.33.08.64.64,0,0,0,.45-.17.61.61,0,0,0,.18-.45.66.66,0,0,0-.08-.32.57.57,0,0,0-.23-.23.67.67,0,0,0-.33-.07.62.62,0,0,0-.33.08.52.52,0,0,0-.22.22.66.66,0,0,0-.08.32" transform="translate(0 0)"/><path class="cls-4" d="M12.37,31.06a.64.64,0,0,1,.42.14.47.47,0,0,1,.16.37.45.45,0,0,1-.08.26.49.49,0,0,1-.24.18.48.48,0,0,1,.16.13,1.35,1.35,0,0,1,.16.27,3.48,3.48,0,0,0,.25.45h-.39a2,2,0,0,1-.11-.19,4.14,4.14,0,0,0-.22-.39.6.6,0,0,0-.13-.14.24.24,0,0,0-.15,0h-.13v.76h-.34v-1.8Zm-.07.77a.33.33,0,0,0,.21-.07.26.26,0,0,0,.08-.19.22.22,0,0,0-.08-.18.34.34,0,0,0-.22-.06h-.22v.5Z" transform="translate(0 0)"/><path class="cls-4" d="M16,31a1,1,0,0,1,.51.13v.31a.93.93,0,0,0-.5-.17.31.31,0,0,0-.2.05.16.16,0,0,0-.08.13c0,.07,0,.13.14.19l.3.15a.83.83,0,0,1,.32.23.51.51,0,0,1,.1.3.49.49,0,0,1-.17.38.67.67,0,0,1-.43.14.87.87,0,0,1-.3,0,1.33,1.33,0,0,1-.28-.13v-.34a.88.88,0,0,0,.55.24.32.32,0,0,0,.2-.06.16.16,0,0,0,.08-.14.25.25,0,0,0-.14-.21l-.29-.14a.91.91,0,0,1-.32-.23.47.47,0,0,1-.1-.3.45.45,0,0,1,.17-.36A.68.68,0,0,1,16,31" transform="translate(0 0)"/><polygon class="cls-4" points="18.24 31.06 18.24 31.89 18.25 31.89 18.91 31.06 19.31 31.06 18.64 31.91 19.5 32.86 19.06 32.86 18.24 31.97 18.24 32.86 17.9 32.86 17.9 31.06 18.24 31.06"/><polygon class="cls-4" points="20.54 31.06 20.98 31.66 21.42 31.06 21.83 31.06 21.15 31.97 21.15 32.86 20.8 32.86 20.8 31.96 20.12 31.06 20.54 31.06"/><path class="cls-4" d="M23.37,31.06a1.15,1.15,0,0,1,.5.11.9.9,0,0,1,.34.33.88.88,0,0,1,.12.46.91.91,0,0,1-.12.47.84.84,0,0,1-.35.32,1.19,1.19,0,0,1-.51.11h-.73v-1.8Zm0,1.53a.64.64,0,0,0,.47-.18A.61.61,0,0,0,24,32a.6.6,0,0,0-.18-.46.64.64,0,0,0-.47-.17H23v1.26Z" transform="translate(0 0)"/><rect class="cls-4" x="25.22" y="31.06" width="0.35" height="1.8"/><polygon class="cls-4" points="26.82 31.06 27.33 32.21 27.82 31.06 28.19 31.06 27.39 32.88 27.27 32.88 26.45 31.06 26.82 31.06"/><rect class="cls-4" x="29.26" y="31.06" width="0.35" height="1.8"/><polygon class="cls-4" points="31.17 31.06 32.24 32.31 32.24 31.06 32.58 31.06 32.58 32.86 32.28 32.86 31.2 31.58 31.2 32.86 30.86 32.86 30.86 31.06 31.17 31.06"/><path class="cls-4" d="M34.55,31a1.57,1.57,0,0,1,.66.14v.32a1.41,1.41,0,0,0-.64-.16.78.78,0,0,0-.35.07.66.66,0,0,0-.24.23.62.62,0,0,0-.08.33.57.57,0,0,0,.18.44.69.69,0,0,0,.48.17h.16l.18-.06v-.3h-.3v-.27h.65v.74a1.05,1.05,0,0,1-.32.15,1.6,1.6,0,0,1-.39.05,1.07,1.07,0,0,1-.51-.12.75.75,0,0,1-.36-.32.89.89,0,0,1-.13-.48.85.85,0,0,1,.13-.47.9.9,0,0,1,.36-.34,1.13,1.13,0,0,1,.52-.11" transform="translate(0 0)"/><path class="cls-4" d="M38.33,31.06a.49.49,0,0,1,.34.12.36.36,0,0,1,.14.29.46.46,0,0,1-.08.25,1.12,1.12,0,0,1-.25.22l.24.29a.93.93,0,0,0,.2-.29h.33a1.33,1.33,0,0,1-.33.51l.36.41h-.45l-.16-.19a1.08,1.08,0,0,1-.26.16,1,1,0,0,1-.31.05.54.54,0,0,1-.37-.13.43.43,0,0,1-.14-.32.45.45,0,0,1,.1-.29,1.14,1.14,0,0,1,.31-.23,1.52,1.52,0,0,1-.14-.21.48.48,0,0,1,0-.2.42.42,0,0,1,.14-.32.57.57,0,0,1,.37-.12m-.4,1.34a.21.21,0,0,0,.07.15.23.23,0,0,0,.16.06.49.49,0,0,0,.32-.15l-.3-.35a1,1,0,0,0-.18.14.21.21,0,0,0-.07.15m.21-.92a.27.27,0,0,0,0,.13.53.53,0,0,0,.11.14.49.49,0,0,0,.15-.12.18.18,0,0,0,.06-.14.17.17,0,0,0,0-.12.22.22,0,0,0-.14-.05.25.25,0,0,0-.12,0,.14.14,0,0,0-.06.12" transform="translate(0 0)"/><path class="cls-4" d="M42.21,31a1.53,1.53,0,0,1,.3,0,1.28,1.28,0,0,1,.32.12v.33a1.36,1.36,0,0,0-.31-.14.92.92,0,0,0-.29,0,.78.78,0,0,0-.35.07.66.66,0,0,0-.24.23.61.61,0,0,0,0,.64.56.56,0,0,0,.24.22.78.78,0,0,0,.35.08.9.9,0,0,0,.28,0,1.94,1.94,0,0,0,.34-.16v.33a1.53,1.53,0,0,1-.32.13,1.25,1.25,0,0,1-.35,0,1.19,1.19,0,0,1-.51-.11,1,1,0,0,1-.35-.33,1,1,0,0,1-.13-.47.87.87,0,0,1,.14-.48.84.84,0,0,1,.36-.34,1.1,1.1,0,0,1,.52-.11" transform="translate(0 0)"/><polygon class="cls-4" points="44.24 31.06 44.24 32.59 45.11 32.59 45.11 32.86 43.89 32.86 43.89 31.06 44.24 31.06"/><rect class="cls-4" x="46.24" y="31.06" width="0.35" height="1.8"/><polygon class="cls-4" points="48.19 31.06 48.78 31.77 49.37 31.06 49.68 31.06 49.68 32.86 49.34 32.86 49.34 31.59 49.33 31.59 48.8 32.23 48.76 32.23 48.24 31.59 48.23 31.59 48.23 32.86 47.88 32.86 47.88 31.06 48.19 31.06"/><path class="cls-4" d="M51.43,31.06a.58.58,0,0,1,.4.13.38.38,0,0,1,.16.32.36.36,0,0,1-.07.22.45.45,0,0,1-.18.15h0a.56.56,0,0,1,.29.17.43.43,0,0,1,.1.29.5.5,0,0,1-.07.27.49.49,0,0,1-.22.18.76.76,0,0,1-.32.06h-.75v-1.8Zm-.09.75a.33.33,0,0,0,.21-.07.19.19,0,0,0,.08-.18.21.21,0,0,0-.07-.17.29.29,0,0,0-.19-.06h-.25v.48Zm.08.78a.51.51,0,0,0,.27-.07.22.22,0,0,0,.09-.19.23.23,0,0,0-.09-.19.43.43,0,0,0-.24-.06h-.33v.51Z" transform="translate(0 0)"/><rect class="cls-4" x="53.27" y="31.06" width="0.35" height="1.8"/><polygon class="cls-4" points="55.27 31.06 56.34 32.31 56.34 31.06 56.68 31.06 56.68 32.86 56.38 32.86 55.31 31.58 55.31 32.86 54.97 32.86 54.97 31.06 55.27 31.06"/><path class="cls-4" d="M58.59,31a1.57,1.57,0,0,1,.66.14v.32a1.41,1.41,0,0,0-.64-.16.78.78,0,0,0-.35.07.66.66,0,0,0-.24.23.62.62,0,0,0-.08.33.57.57,0,0,0,.18.44.69.69,0,0,0,.48.17h.16l.18-.06v-.3h-.3v-.27h.65v.74a1.05,1.05,0,0,1-.32.15,1.6,1.6,0,0,1-.39.05,1.07,1.07,0,0,1-.51-.12.75.75,0,0,1-.36-.32.89.89,0,0,1-.13-.48.85.85,0,0,1,.13-.47.9.9,0,0,1,.36-.34,1.13,1.13,0,0,1,.52-.11" transform="translate(0 0)"/><path class="cls-8" d="M23.29,2.8c-.06,0-.21.13-.24.15s.05.3.05.3-.08.3-.08.3-.08.08-.11.11a.56.56,0,0,0-.18.25,1.52,1.52,0,0,1-.28.18l-.36.18c0-.14.05-1-.65-1.18a1,1,0,0,0-1,.31.7.7,0,0,0-.28.54,1.29,1.29,0,0,0,.24,1.16.35.35,0,0,0,.12.19.62.62,0,0,0,.37-.06A1.69,1.69,0,0,0,21.29,5c0,.11,0,.22,0,.27a1.1,1.1,0,0,0,.26.34,9.71,9.71,0,0,0,2.71,1.51,8,8,0,0,0,2.9.14,8,8,0,0,0,2.31-.41.59.59,0,0,0,.36-.26c0-.08.33-.72.4-.87a11.36,11.36,0,0,0,.6-1.26c0-.06.32-.79.34-.83s.1,0,.15-.11a.26.26,0,0,0-.05-.25s0-.11,0-.19a.46.46,0,0,0,0-.23c0-.13-.09-.1-.16-.08a.28.28,0,0,1-.2,0,2.55,2.55,0,0,0-.63.24c-.07,0,.1.21.12.25a2.41,2.41,0,0,0,.14.27c.09.15-.21.28-.28.34a5.41,5.41,0,0,0-1,1.59,1.27,1.27,0,0,1-.36.4,2.45,2.45,0,0,0-.47-.09,3,3,0,0,0,.25-.82s.28-.44.3-.48.08,0,.08,0,.12-.18.13-.24.09-.17.11-.23l.17-.25c.11-.16,0-.22,0-.22a1.73,1.73,0,0,0-.88.27,2.29,2.29,0,0,1-.43.15c-.15.05,0,.14,0,.19a2.63,2.63,0,0,1,.19.37s-.34.38-.39.45-.4.74-.4.74a6.32,6.32,0,0,0-1.08-.26,5.42,5.42,0,0,0-1.25,0A6.5,6.5,0,0,1,24.57,5a.58.58,0,0,1,0-.51,8,8,0,0,1,.93-1L26.14,3c.08-.06.41-.31.46-.36s.11-.15.2-.22a3.39,3.39,0,0,0,.33-.36,1.19,1.19,0,0,0,.29-.31.65.65,0,0,0,.12-.55,1.06,1.06,0,0,1,0-.31,2.63,2.63,0,0,0,0-.3s.06-.29.06-.29.14-.2.08-.26a.13.13,0,0,0-.15,0,.14.14,0,0,0-.11.08l-.1.16a2.59,2.59,0,0,0-.17.33A2.59,2.59,0,0,0,27,1c0,.08-.09.53-.1.57a.41.41,0,0,1-.24.25l-.1-.06-.15.07a3.47,3.47,0,0,0-.37.21l-.45.27-.6.36a.81.81,0,0,0-.24.25l-.42.34c-.08.06-.62.36-.62.36A.73.73,0,0,0,23.66,3c0-.06-.06-.13-.09-.12s-.05,0-.11,0a.37.37,0,0,0-.17,0M21.08,4.43c0,.06-.64.61-.64.61A1.33,1.33,0,0,1,20.25,4,3.33,3.33,0,0,1,21,4c.06,0,.12.09.14.15a.49.49,0,0,1,0,.33" transform="translate(0 0)"/><polygon class="cls-6" points="58.3 23.6 58.3 24.19 58.15 24.19 58.15 23.6 57.94 23.6 57.94 23.49 58.51 23.49 58.51 23.6 58.3 23.6"/><path class="cls-6" d="M59.32,24.19l-.06-.34,0-.17h0s0,.1,0,.16l-.13.35h-.15l-.12-.33a1.67,1.67,0,0,1,0-.18h0l0,.18,0,.33h-.16l.13-.7h.18l.13.36s0,.1,0,.15h0a.66.66,0,0,1,0-.15l.13-.36h.18l.13.7Z" transform="translate(0 0)"/></g></g></g></svg>