<svg xmlns="http://www.w3.org/2000/svg" xmlns:xlink="http://www.w3.org/1999/xlink" viewBox="0 0 48.5 61.49"><defs><style>.cls-1{fill:none;}.cls-2{clip-path:url(#clip-path);}.cls-3{fill:#1d252c;}.cls-4{fill:#d7282f;}.cls-5{fill:#fff;}.cls-6{fill:#b3b6b9;}.cls-7,.cls-9{fill:#fff200;}.cls-8{fill:#009d57;}.cls-9{fill-rule:evenodd;}</style><clipPath id="clip-path" transform="translate(-0.01)"><rect class="cls-1" width="48.51" height="61.49"/></clipPath></defs><title>logo-ferrari-world</title><g id="Layer_2" data-name="Layer 2"><g id="Layer_1-2" data-name="Layer 1"><g class="cls-2"><path class="cls-3" d="M38.71.46H7.08A1.05,1.05,0,0,0,6,1.51V54.43a1.05,1.05,0,0,0,1.06,1H38.71a1.06,1.06,0,0,0,1.06-1V1.51a1.06,1.06,0,0,0-1.06-1" transform="translate(-0.01)"/><path class="cls-4" d="M38.57.69H7.21a1,1,0,0,0-1,1V54.21a1,1,0,0,0,1,1H38.57a1,1,0,0,0,1-1V1.73a1,1,0,0,0-1-1m0-.69a1.73,1.73,0,0,1,1.75,1.73V54.21a1.73,1.73,0,0,1-1.75,1.73H7.21a1.73,1.73,0,0,1-1.74-1.73V1.73A1.73,1.73,0,0,1,7.21,0Z" transform="translate(-0.01)"/><path class="cls-5" d="M19.11,49.73c-.13-.15-.22-.21-.31-.21a.31.31,0,0,0-.24.12c-.11.11-.22.28-.39.46a5.62,5.62,0,0,0-.94,1.25.85.85,0,0,0-.1.36.33.33,0,0,0,.06.22l.07,0c.18,0,.35-.25.6-.67s.38-.68.47-.82.25-.45.39-.49.19.15.34.38a2,2,0,0,1,.25.46l-.25,0a2.73,2.73,0,0,0-1.09.38.26.26,0,0,0-.13.23.3.3,0,0,0,.08.21l0,0h.09a11.68,11.68,0,0,1,1.5-.46l.18.29a.45.45,0,0,0,.36.18.05.05,0,0,0,0,0s0,0,0-.06a2.38,2.38,0,0,0-.47-1c-.28-.43-.47-.75-.59-.9" transform="translate(-0.01)"/><path class="cls-5" d="M21.83,50.31a1,1,0,0,0-.38-.07h-.14a.41.41,0,0,0-.38.29.56.56,0,0,0,0,.17c0,.1,0,.22.15.23h0a.75.75,0,0,0,.29-.08l.3-.13.09,0a.08.08,0,0,1,.07,0A.46.46,0,0,1,22,51a.12.12,0,0,1,0,.08,1.4,1.4,0,0,1-.29.32,1,1,0,0,1-.56.16.27.27,0,0,1-.24-.1,1.48,1.48,0,0,1-.19-.8c0-.52,0-.9,0-1.16a1.68,1.68,0,0,0-.34-1.1.31.31,0,0,0-.18-.09.33.33,0,0,0-.22.11.38.38,0,0,0-.09.25.53.53,0,0,0,.06.24,4,4,0,0,1,.4,1.21c.05.42.1.84.16,1.26a.72.72,0,0,0,.4.5,1.08,1.08,0,0,0,.43.1h0a1.26,1.26,0,0,0,.7-.22.91.91,0,0,0,.4-.51.56.56,0,0,0,0-.21.68.68,0,0,0-.13-.4,1.06,1.06,0,0,0-.44-.35" transform="translate(-0.01)"/><path class="cls-5" d="M21.83,50.31a1,1,0,0,0-.38-.07h-.14a.41.41,0,0,0-.38.29.56.56,0,0,0,0,.17c0,.1,0,.22.15.23h0a.75.75,0,0,0,.29-.08l.3-.13.09,0a.08.08,0,0,1,.07,0A.46.46,0,0,1,22,51a.12.12,0,0,1,0,.08,1.4,1.4,0,0,1-.29.32,1,1,0,0,1-.56.16.27.27,0,0,1-.24-.1,1.48,1.48,0,0,1-.19-.8c0-.52,0-.9,0-1.16a1.68,1.68,0,0,0-.34-1.1.31.31,0,0,0-.18-.09.33.33,0,0,0-.22.11.38.38,0,0,0-.09.25.53.53,0,0,0,.06.24,4,4,0,0,1,.4,1.21c.05.42.1.84.16,1.26a.72.72,0,0,0,.4.5,1.08,1.08,0,0,0,.43.1h0a1.26,1.26,0,0,0,.7-.22.91.91,0,0,0,.4-.51.56.56,0,0,0,0-.21.68.68,0,0,0-.13-.4,1.06,1.06,0,0,0-.44-.35" transform="translate(-0.01)"/><path class="cls-5" d="M36.32,50.31a1,1,0,0,0-.37-.07H35.8a.41.41,0,0,0-.37.29.56.56,0,0,0,0,.17c0,.1,0,.22.14.23h0a.8.8,0,0,0,.29-.08,1.69,1.69,0,0,0,.29-.13l.1,0a.06.06,0,0,1,.06,0,.48.48,0,0,1,.12.28.24.24,0,0,1,0,.08,1.47,1.47,0,0,1-.3.32,1,1,0,0,1-.56.16.25.25,0,0,1-.23-.1,1.48,1.48,0,0,1-.19-.8c0-.52,0-.9,0-1.16a1.74,1.74,0,0,0-.34-1.1.31.31,0,0,0-.19-.09.31.31,0,0,0-.21.11.39.39,0,0,0-.1.25.55.55,0,0,0,.07.24,4,4,0,0,1,.4,1.21c0,.42.1.84.16,1.26a.69.69,0,0,0,.4.5,1,1,0,0,0,.43.1h0a1.32,1.32,0,0,0,.71-.22,1,1,0,0,0,.4-.51.56.56,0,0,0,0-.21.68.68,0,0,0-.13-.4,1,1,0,0,0-.45-.35" transform="translate(-0.01)"/><path class="cls-5" d="M28.61,49.88a1.5,1.5,0,0,0-.42-.44,1.82,1.82,0,0,0-1-.54.34.34,0,0,0-.35.31l0,.08a.31.31,0,0,0,.22.11l.2,0,.44.2a1.53,1.53,0,0,1,.72.73.68.68,0,0,1,.05.29.63.63,0,0,1,0,.23,3.4,3.4,0,0,1-.57.82c-.11.13-.35.36-.71.71h0s0,.06,0,.06h0a.21.21,0,0,0,0,.08l.08,0a2.22,2.22,0,0,0,1-.77,1.66,1.66,0,0,0,.41-2" transform="translate(-0.01)"/><path class="cls-5" d="M27.32,51.66h0a.07.07,0,0,0,.05,0,.89.89,0,0,0,.08-.33v-.74c0-.47,0-.81-.13-.95s-.05,0-.06-.05a.24.24,0,0,0-.21.07.15.15,0,0,0,0,.08,2.75,2.75,0,0,0,.07,1,1.81,1.81,0,0,0,.18.92.05.05,0,0,0,.05,0" transform="translate(-0.01)"/><path class="cls-5" d="M31.61,51.59a.28.28,0,0,0-.11-.08l0,0c-.11,0-.19,0-.23-.14s-.11-.32-.16-.42a.56.56,0,0,0-.47-.34.4.4,0,0,0-.24.09c-.19.15-.36.35-.54.51a.49.49,0,0,1-.33.16s0,0,0,0a2,2,0,0,1,0-.54v-.14a3.35,3.35,0,0,1,.15-.78,3.57,3.57,0,0,0,.14-.82V48.9a.08.08,0,0,1,0,0c-.06-.12-.14-.19-.23-.18s-.2.17-.22.37c0,.65-.07,1.12-.09,1.38s0,.47-.06.58a2.26,2.26,0,0,0,0,.26,1,1,0,0,0,0,.31.36.36,0,0,0,.33.26.29.29,0,0,0,.16,0,3.06,3.06,0,0,0,.43-.38,5.36,5.36,0,0,1,.41-.36.33.33,0,0,1,.15-.05c.07,0,.2,0,.22.12a2.31,2.31,0,0,1,.07.24c.11.38.24.63.42.72l.08,0c.11,0,.21-.1.27-.26s0,0,0-.05a.72.72,0,0,0,0-.13.19.19,0,0,0,0-.08" transform="translate(-0.01)"/><path class="cls-5" d="M34.42,51.06l-.25-.12c-.15-.07-.18-.07-.21-.07a.78.78,0,0,0-.44.18l-.49.36a3.65,3.65,0,0,1-.5.31l-.11,0a.11.11,0,0,1-.11-.06c0-.18.09-.3.31-.39l.32-.12a.62.62,0,0,0,.3-.25l0-.06a.48.48,0,0,0-.07-.23l0,0h-.06a1.13,1.13,0,0,0-.71.35,1,1,0,0,0-.44.71A.74.74,0,0,0,32,52a.34.34,0,0,0,.28.16h0a1.24,1.24,0,0,0,.59-.18l.5-.35a2.83,2.83,0,0,1,.5-.32H34a.08.08,0,0,1,.08,0,1,1,0,0,1,.13.18c.07.1.13.17.23.17s.17-.07.26-.18v-.05a.48.48,0,0,0-.25-.41" transform="translate(-0.01)"/><path class="cls-5" d="M25.28,50.84,25,50.71a.54.54,0,0,0-.2-.06.77.77,0,0,0-.45.17l-.49.36a2.87,2.87,0,0,1-.5.31.19.19,0,0,1-.11,0s-.09,0-.11-.07-.11-.39.12-.48,0-.56-.25-.33a.92.92,0,0,0-.25.8.7.7,0,0,0,.08.33.4.4,0,0,0,.28.17h0a1.1,1.1,0,0,0,.58-.19,3.55,3.55,0,0,0,.52-.35,2.52,2.52,0,0,1,.5-.31l.06,0a.15.15,0,0,1,.08,0c.06.07.1.14.14.19a.32.32,0,0,0,.22.18c.09,0,.16-.07.26-.18l0-.06a.47.47,0,0,0-.25-.4" transform="translate(-0.01)"/><path class="cls-5" d="M37.47,50.82c-.08-.2-.13-.35-.17-.44s0-.06-.09,0h0s0,0-.06,0a.14.14,0,0,0,0,.07c0,.22,0,.4,0,.51a1.14,1.14,0,0,0,.12.54l.05,0h.11c.1,0,.11-.07.17-.16l0,0a1.57,1.57,0,0,0-.11-.49" transform="translate(-0.01)"/><path class="cls-5" d="M36.86,49.8h0a.43.43,0,0,0,.31-.19l0-.06h0a.35.35,0,0,0-.06-.14l-.05,0H37l0-.07,0-.06v-.07l0-.08a.19.19,0,0,0-.12,0,.21.21,0,0,0-.12,0l-.12.1a.52.52,0,0,0-.12.28.34.34,0,0,0,.11.23.28.28,0,0,0,.2.1" transform="translate(-0.01)"/><path class="cls-6" d="M.36,9.85a63,63,0,0,0,20.85,14C36.56,30,47.34,29.5,47.34,29.5S34.26,32.4,24.72,41A83.58,83.58,0,0,0,8.94,60.52s1-13.22-.35-24.05C7,24.2.36,9.85.36,9.85" transform="translate(-0.01)"/><path class="cls-5" d="M8.84,61.49H8.73a.39.39,0,0,1-.27-.21A.53.53,0,0,1,8.4,61a9.05,9.05,0,0,1,.16-1A104.08,104.08,0,0,0,9.7,44.33,49.93,49.93,0,0,0,8.2,31.94C6,24.14,1.69,14.08.37,11c-.08-.2-.17-.37-.23-.51A1.13,1.13,0,0,1,0,10a.45.45,0,0,1,.23-.39.4.4,0,0,1,.22-.06.48.48,0,0,1,.32.12A1.17,1.17,0,0,1,1,9.9c.15.17.32.39.54.62A56.62,56.62,0,0,0,20.67,24.07a65.84,65.84,0,0,0,24.69,5.08,17.77,17.77,0,0,0,1.79-.08c.3,0,.55-.06.76-.06a.83.83,0,0,1,.34,0,.43.43,0,0,1,.26.32v.05a.44.44,0,0,1-.21.35,1.09,1.09,0,0,1-.32.1c-.22.05-.49.08-.78.14-3.43.7-15.29,3.42-23.49,11.11C17.38,47.06,11,57.36,9.61,60.44a3.33,3.33,0,0,1-.45.91.43.43,0,0,1-.31.14h0" transform="translate(-0.01)"/><path class="cls-4" d="M.6,10.87c-.26-.61-.47-.89-.24-1s.34.2.86.76A57.72,57.72,0,0,0,20.58,24.3c11.27,4.78,22.7,5.38,26.59,5,.64-.05,1.06-.14,1.09.1s-.47.26-1.08.39C43.73,30.51,31.8,33.2,23.54,41c-6.37,6-12.73,15.95-14.12,19.32-.25.6-.38,1-.64,1s-.1-.45,0-1.12c.53-3.81,2.53-17.8-.34-28.24C6.28,24.05,1.92,14,.6,10.87" transform="translate(-0.01)"/><polyline class="cls-5" points="15.32 28.48 15.24 28.7 19.76 29.46 23.78 31.67 23.85 31.46 19.86 29.18"/><path class="cls-4" d="M23.79,31.67l-4-2.21-4.52-.76-.24.72A13.28,13.28,0,0,1,19.6,30a13,13,0,0,1,3.93,2.41" transform="translate(-0.01)"/><path class="cls-3" d="M19.61,29.94A9.48,9.48,0,0,0,15,29.4l-.72,2.16a9.37,9.37,0,0,0,1.63,8.93,9.36,9.36,0,0,0,6.83-6l.78-2.13a9.54,9.54,0,0,0-3.93-2.43" transform="translate(-0.01)"/><path class="cls-7" d="M23.32,32.47a8.62,8.62,0,0,0-3.79-2.32,8.64,8.64,0,0,0-4.41-.54l-.64,2A8.91,8.91,0,0,0,16,40.27a9,9,0,0,0,6.58-5.83" transform="translate(-0.01)"/><polyline class="cls-8" points="15.32 28.49 15.4 28.23 19.96 28.91 23.94 31.2 23.85 31.46 19.86 29.18"/><path class="cls-3" d="M16.16,37.29s0,0,0,0-.06,0-.09,0a.12.12,0,0,1-.07,0l0,0-.14-.08a.36.36,0,0,0-.25,0,.29.29,0,0,0-.1.09s-.06.1,0,.15a.34.34,0,0,0,.08.2l.08.09.11.1.1.08s.15.12.13.25a.29.29,0,0,1-.4.2A.37.37,0,0,1,15.2,38a.22.22,0,0,1,0-.14v0h0a.09.09,0,0,0,.18,0,.1.1,0,0,0-.07-.11s-.18,0-.24.17a.37.37,0,0,0,.07.35.58.58,0,0,0,.23.16,1.06,1.06,0,0,0,.27,0,.41.41,0,0,0,.32-.25.32.32,0,0,0,0-.34.78.78,0,0,0-.08-.1l-.13-.12-.1-.09,0-.07,0,0s-.07-.1,0-.16.21,0,.21,0a.57.57,0,0,1,.16.15.5.5,0,0,1,.09.18v.07h0a.82.82,0,0,1,0-.21s0-.14,0-.14" transform="translate(-0.01)"/><path class="cls-3" d="M17.26,38.51a.07.07,0,0,0,0,.05.1.1,0,0,0,.14-.06.11.11,0,0,0-.05-.12.14.14,0,0,0-.19,0,.29.29,0,0,0-.1.2.39.39,0,0,0,.1.31.44.44,0,0,0,.33.14.59.59,0,0,0,.3-.08,1,1,0,0,0,.26-.22l.08-.09.05,0a.17.17,0,0,0,.12,0,.33.33,0,0,0,.11-.07h0l0,0a.13.13,0,0,1-.09,0l-.1,0,.09-.11.11-.11a.63.63,0,0,0,.11-.08,1.45,1.45,0,0,0,.26.07h.44v0a1.85,1.85,0,0,1-.37-.05,1.67,1.67,0,0,1-.33-.11L18.35,38,18.23,38l-.17,0h-.19c-.06,0-.2.07-.2.22s.26.16.32.07l0,0v0h0l0,0s-.11,0-.16,0a.08.08,0,0,1,0-.11A.2.2,0,0,1,18,38a.59.59,0,0,1,.2.08l.13.08.07,0h0l-.07,0a.63.63,0,0,0-.17.12l-.12.12H18l-.08,0,0,0,0,0a.14.14,0,0,1,.07,0,.09.09,0,0,1,.06,0,1.32,1.32,0,0,1-.13.14,1,1,0,0,1-.18.15.39.39,0,0,1-.26,0,.27.27,0,0,1-.21-.19.3.3,0,0,1,0-.16.21.21,0,0,1,.06-.08" transform="translate(-0.01)"/><path class="cls-3" d="M19.32,30.46l0,.06s-.06,0-.06.05a.09.09,0,0,0,0,.06l.05.06s.05,0,.07,0a.11.11,0,0,0,0-.08c0-.06,0-.07,0-.15s0,0,0,0" transform="translate(-0.01)"/><path class="cls-3" d="M17.47,35.11a1.44,1.44,0,0,1,.22.33c0,.08.06.17.08.16s0-.08,0-.17a2.09,2.09,0,0,0-.16-.27c-.07-.1-.18-.29-.18-.29l-.09-.16-.1-.18-.07-.17-.06-.16s0-.1,0-.17a.49.49,0,0,0-.05-.16c0-.06-.09-.06-.15-.14a.35.35,0,0,1-.09-.16h0a0,0,0,0,0,0,0l0,0,0,0,0-.05-.07-.08-.09-.12,0-.07,0,0h-.05a0,0,0,0,0-.05,0s0,0,0,.17-.08.28-.08.35a.66.66,0,0,0,0,.22v.06a.2.2,0,0,0,0,.06c0,.12.16.1.14.26a.56.56,0,0,1-.12.29s-.06.06-.11.05S16,34.4,16,34.29a1,1,0,0,1,0-.27s0-.05,0-.08,0,0,0-.12,0-.08,0-.14V33.6l0-.18,0-.13a.55.55,0,0,0,0-.09c0-.13.05-.26.05-.26l0,0v-.06l0,0,0,0,.05,0,.08,0a.25.25,0,0,1,.09,0,.11.11,0,0,1,.08,0l.09,0a2.63,2.63,0,0,1,.26.15l.1.08c.06.09.1.07,0,0s0-.07-.06-.12a.47.47,0,0,1-.05-.1l-.05-.16,0-.08,0,0a0,0,0,0,0,0,0l-.05,0s-.06,0-.06,0a1.27,1.27,0,0,1-.19.14,1.43,1.43,0,0,0-.3.19c-.09.06-.11.16-.15.19a.15.15,0,0,1-.06,0c-.05.06,0,.13,0,.2a.53.53,0,0,1-.43.1s.06-.19.09-.24l.1-.11,0,0,0-.07,0-.05,0,0s.17-.14.28-.24l.17-.17.17-.14.07-.07.11-.07.1-.08.11,0a.2.2,0,0,1,.14.06.45.45,0,0,1,.12.12.79.79,0,0,1,.05.1v0h0l0,0,.07.09s.15.2.15.21l0,.06a1.42,1.42,0,0,1,.21-.07.65.65,0,0,1,.24,0l.11,0c.06,0,.07-.06.15-.1a.55.55,0,0,1,.13-.07s0,0,.14-.08a.68.68,0,0,0,.2-.14l.09-.08.18-.19c.05-.06.05-.08.05-.08a.07.07,0,0,0,0-.05s0,0-.06,0a.42.42,0,0,1-.18-.08l-.14-.09a.6.6,0,0,0-.16-.08h-.13a.17.17,0,0,1-.1,0l-.06,0,0,0a0,0,0,0,0,0,0h.23a.1.1,0,0,0,0,0l0,0H18v-.07a.29.29,0,0,1,0-.1l0,0,0,0,0,0,.08,0a.07.07,0,0,1,.06,0h.09a.31.31,0,0,0,.11,0h.1a1.34,1.34,0,0,0,.23,0,2.17,2.17,0,0,1,.25,0h.12s0,0,0,0-.05,0-.05,0,0,0,0,0h0s0,0,0,0L19,30.72a.27.27,0,0,0-.1-.06l-.1,0s0,0,0,0h.13l.06,0s.05,0,.07,0,0,0-.06,0-.05,0-.05,0,0,0,0,0h.13l.1.05.08.08.06.05a.1.1,0,0,0,.08,0s0,0,0-.05a.13.13,0,0,1,0-.09s.06-.09.07-.09,0,0,0,.07a.71.71,0,0,1,.15.29.58.58,0,0,1,.13.05.36.36,0,0,1,.14.2.12.12,0,0,0,0,0l0,0,.16.05a.31.31,0,0,1,.11.05s.1.12.05.13-.05-.05-.08-.05a.12.12,0,0,0-.08,0c-.07,0-.21,0-.17,0h0l0,0,.09.06.1.11.05.07.08,0,.08.06a.91.91,0,0,1,.08.13l.05.06v0s0,0-.05,0,0,0,0,0,0-.05-.07-.06,0,0-.06,0h-.07a.33.33,0,0,1-.1-.06,1.05,1.05,0,0,1-.11-.07c-.05,0-.12-.11-.13-.06s0,.06,0,.06l0,.05,0,.05,0,0a.44.44,0,0,0,0,.08.14.14,0,0,0,.07.07l.09.05a.33.33,0,0,1,.12.1.47.47,0,0,1,.06.1,0,0,0,0,1,0,.06h0s0-.06,0-.06l0,0-.05,0-.05,0-.14,0A.14.14,0,0,1,20.1,32l0,0s0-.07-.05-.05,0,0,0,0l0,0,0,.08,0,0h0l.05,0a.54.54,0,0,1,.07.09h0l0,0,0,0s0,0,0,0h-.07l0,0-.06-.05-.06,0-.06,0,0,0,0,0s0,0-.07-.07a.08.08,0,0,0-.09,0c-.06,0,.06.07.11.12a.3.3,0,0,1,.12.18.33.33,0,0,0,0,.08.37.37,0,0,1,.07.1s0,0,0,.06.09.08.09.12-.07,0-.1,0,0-.09-.11-.14L20,32.47l-.12-.12s-.09-.1-.1-.06v.06a.17.17,0,0,0,0,0l.09.1a.57.57,0,0,1,.07.13.2.2,0,0,1,0,0v.06a.11.11,0,0,0,0,.06c0,.05.08.06.12.1s0,0,0,0,0,0,0,0l-.1,0a.22.22,0,0,1-.1-.09.15.15,0,0,1-.06-.1l0,0,0,0-.05,0a.16.16,0,0,1-.06,0l-.07,0c-.06,0,.05.07.08.13s0,0,0,.06l0,.06,0,0,.06.06a.31.31,0,0,1,.05.11l0,.06v.07l0,.05v0h0l0,0s0,0,0,0l0-.08-.06,0a.08.08,0,0,0,0,0l0,0-.08-.08s0,0,0,0a.18.18,0,0,0,0,.08s.06.07,0,.09h0a.18.18,0,0,1-.05-.06L19.5,33c-.05,0,0,0,0,0a0,0,0,0,0,0,0l0,0h0l.06,0a.23.23,0,0,1,.07.06l0,.08a.3.3,0,0,0,.09.08,0,0,0,0,1,0,0v0s0,0,0,0h-.05l-.09,0-.08-.08s0,0-.07-.06-.06,0-.07,0h-.05s0,0,0,0h0l0,0,.09,0a.53.53,0,0,1,.06.1l0,.07,0,0h0l-.05,0-.05,0-.06,0-.09,0-.11,0c-.06,0-.12-.11-.14-.1s0,.05.06.08a.58.58,0,0,0,.1.09l.08.06c.06,0,.06.11.09.18a.18.18,0,0,0,.09.08s0,0,.09,0,.11,0,.13,0v0h0l-.08,0a.35.35,0,0,1-.15,0,.4.4,0,0,1-.13-.1l-.05,0,0,0s-.08,0-.13-.08,0,0-.07-.05,0,0,0,0,0,0,.05.06l.08.06.07.08a.21.21,0,0,0,0,.06l.05.09s0,0,0,0,0,0,0,0,0,0,0,0h0v0l0,0-.05-.07-.08-.06s0,0,0,0,0,0,0,0a.11.11,0,0,1,.05,0l0,.08a.17.17,0,0,1,0,.07.17.17,0,0,0,0,.07c0,.05,0,0,0,.06h0l0,0,0,0s0-.07,0-.07l-.05-.07a.15.15,0,0,0,0-.05l-.06,0,0,0-.06,0a.27.27,0,0,1-.06-.07l0,0s0,.06-.07.08a.76.76,0,0,0,0,.42,2.19,2.19,0,0,0,.18.57l.07.09a2.1,2.1,0,0,1,.22.36c.06.13.13.33.13.33l.05.21a1.36,1.36,0,0,1,0,.25v0s0,0,0,0l0,0,.09,0,.19,0,.14,0,.09-.05a.65.65,0,0,0,.19-.16,1.06,1.06,0,0,0,.11-.22,1,1,0,0,0,.08-.26s0-.19.05-.26a1.53,1.53,0,0,0,0-.18s0-.09,0-.15l.05-.15a1.37,1.37,0,0,1,.07-.16,1.15,1.15,0,0,1,.16-.18l.12-.08a.64.64,0,0,1,.22-.09c.06,0,.15-.06.18,0s0,0-.07.05a1.37,1.37,0,0,0-.27.17.7.7,0,0,0-.17.19.4.4,0,0,0-.06.16s0,0,0,0a2.37,2.37,0,0,0,.28-.12c.11-.07.24-.2.27-.19s0,.05,0,.07a.81.81,0,0,1-.11.13.67.67,0,0,1-.16.12.48.48,0,0,0-.16.13.31.31,0,0,0-.1.2s0,.06,0,.06.17-.06.26-.14.11-.13.16-.16,0,.08,0,.13a.74.74,0,0,1-.2.19.3.3,0,0,0-.14.16l-.06.13a.94.94,0,0,0-.06.23,1.08,1.08,0,0,1,0,.21,1,1,0,0,1-.23.41l-.15.11-.13,0-.18,0h-.11v.08l0,.14a.19.19,0,0,1-.05.11s0,0-.06.09,0,.12-.05.2,0-.07,0-.11a.57.57,0,0,1,0-.22.3.3,0,0,0,0-.1.28.28,0,0,0,0-.13s0-.05,0-.05l0,0s0,0,0,0v.06a.56.56,0,0,1,0,.12.57.57,0,0,1-.08.15.54.54,0,0,1-.12.14.68.68,0,0,1-.16.12l-.14.1c-.07.07,0,.12-.07.12s0-.06,0-.1a.11.11,0,0,1,0-.09l.08-.08.08-.07a1.19,1.19,0,0,0,.14-.17.41.41,0,0,0,.06-.17s0,0,0,0a.09.09,0,0,0-.06,0s0,0-.06.1l-.06.08a.37.37,0,0,0-.06.1s0,0,0,0a.24.24,0,0,1,0-.11s0-.05,0-.08a.75.75,0,0,1,.07-.12s0-.07.07-.14a.18.18,0,0,0,0-.09l0,0s0,0,0,0a.67.67,0,0,1-.06.11.84.84,0,0,1-.23.23,1.41,1.41,0,0,1-.27.14l-.22.07-.19,0a.62.62,0,0,0-.14.1.28.28,0,0,0-.07.19.23.23,0,0,0,0,.13s0,.06,0,.11,0,0,0,0a.11.11,0,0,1,0,.06s0,.06,0,.08a.12.12,0,0,1-.07,0h-.08a1.63,1.63,0,0,0-.65.26c-.07,0,0,.05-.11.1s-.11,0-.16,0,0,.16-.12.17a.73.73,0,0,1-.47-.17c0-.07.11-.11.14-.13s.28-.05.36-.15,0,0,.14-.08a4.88,4.88,0,0,0,.58-.23.38.38,0,0,0,.14-.09.07.07,0,0,0,0-.09l0-.1,0-.2s0-.1,0-.16,0-.21,0-.21a1.62,1.62,0,0,1,0-.21.9.9,0,0,1,.18-.35c.12-.15.2-.15.36-.36,0,0,.06-.14,0-.14s0,.07-.07.11-.24.21-.37.37a.79.79,0,0,0-.16.3.56.56,0,0,0,0,.2s0,.08,0,.13,0,.1,0,.1v.16a.09.09,0,0,1,0,0l-.06.07s0,0-.1,0a.56.56,0,0,1-.16-.08,2.7,2.7,0,0,0-.76-.39.88.88,0,0,1-.17,0c-.05,0-.07-.07-.13-.08l0,0c-.11,0-.08.14-.28,0s-.25-.21-.2-.25.11,0,.23-.06a2,2,0,0,1,.33.07s.11,0,.18,0,.14.07.14.07l.21.09.4.14.11,0s.07,0,.1-.06a.14.14,0,0,0,0-.07v0l0-.07,0-.15,0-.18a2.1,2.1,0,0,1,0-.21v-.22a1.3,1.3,0,0,1,0-.21.64.64,0,0,1,.1-.24" transform="translate(-0.01)"/><path class="cls-5" d="M20.15,35.88a.77.77,0,0,0,.22-.31,1.22,1.22,0,0,0,.06-.27h0s0,0,0,0a.1.1,0,0,0,0,0,1.17,1.17,0,0,1-.18.41c-.13.16-.29.18-.36.24s.2,0,.29-.1" transform="translate(-0.01)"/><path class="cls-5" d="M19.15,35.93a.05.05,0,0,0-.06,0,.61.61,0,0,1,0,.11s-.08.09-.06.13.17-.18.17-.22,0,0,0,0" transform="translate(-0.01)"/><path class="cls-5" d="M18,37.39h0a0,0,0,0,0,0,0,0,0,0,0,0,0,0s.05,0,.05,0h0" transform="translate(-0.01)"/><path class="cls-5" d="M17.25,37.6h0l.2-.08.2-.1a0,0,0,0,0,0,0h-.08l-.05,0-.1,0-.07,0-.06,0,0,0h0" transform="translate(-0.01)"/><path class="cls-5" d="M17,37.65h0l-.05,0a0,0,0,0,0,0,0s0,0,0,0h0a0,0,0,0,0,0,0" transform="translate(-0.01)"/><path class="cls-5" d="M16.6,37.86s0,0,0,0l-.06,0,0,0s0,0,0,0,0,0,.06,0h.06s0,0,0,0" transform="translate(-0.01)"/><path class="cls-5" d="M15.94,36.16h0l0,0s0,0,0,0l0,0s0,0-.05,0" transform="translate(-0.01)"/><path class="cls-5" d="M16.56,36.35s0,0,0,0h0s0,0,0,0,0,0,0,0" transform="translate(-0.01)"/><path class="cls-5" d="M17.14,36.57h-.07l-.14-.06-.18-.09h0s0,0,0,.05a.37.37,0,0,0,.15.08l.1,0,.12,0s0,0,0,0" transform="translate(-0.01)"/><path class="cls-5" d="M17.49,36.59s0,0,0,0l0,0s0,0,0,0h0s0,0,0,0" transform="translate(-0.01)"/><path class="cls-5" d="M18.58,32.57a1.72,1.72,0,0,0,.34-.21c.09-.09.2-.32.13-.27s-.1.14-.18.21a2.29,2.29,0,0,1-.3.25s-.05,0,0,0" transform="translate(-0.01)"/><path class="cls-5" d="M17.91,32.71a0,0,0,0,0,0,0s0,0,0,0l.14,0,.16.07,0,0,0,0s0,0,0,0,0-.13-.13-.17a.39.39,0,0,0-.28,0" transform="translate(-0.01)"/><path class="cls-5" d="M17.06,33s.1-.07.16-.12l.14-.09s0,0,0,0a.3.3,0,0,0-.15.08c-.05,0-.14.13-.14.15" transform="translate(-0.01)"/><path class="cls-5" d="M16.85,32.47a.1.1,0,0,0,0,.1c0,.07,0,.11.07.09s0-.08,0-.1l0-.05h0l0,0h0" transform="translate(-0.01)"/><path class="cls-5" d="M16.83,32.05s0,0-.07,0,0,0,0,0h.05s0,0,0,0" transform="translate(-0.01)"/><path class="cls-5" d="M15.58,33.08s0,0-.05.05,0,0,0,0l0,0s0,0,0-.06" transform="translate(-0.01)"/><path class="cls-5" d="M16.07,34.34s0-.05-.05,0,0,.09,0,.09a0,0,0,0,0,0,0,0,0,0,0,0,0,0,.17.17,0,0,0,0,0" transform="translate(-0.01)"/><path class="cls-5" d="M16.09,33.16h0s0,0,0,.06a.45.45,0,0,0,0,.08.54.54,0,0,0,0,.08.38.38,0,0,0,0,.08s0,0,0,0,0,0,0,0,0-.16,0-.18a1.1,1.1,0,0,1,0-.11h0a0,0,0,0,0,0,0" transform="translate(-0.01)"/><path class="cls-5" d="M16.31,32.73s0,0,0,0,0,0,0,0,0,0,.05,0l0,0a0,0,0,0,0,0,0" transform="translate(-0.01)"/><path class="cls-5" d="M16.74,33.34s0,0,0,0a1.37,1.37,0,0,1-.16-.18s-.09-.07-.05-.08h0l0,0,.07,0,.06.06,0,.08" transform="translate(-0.01)"/><path class="cls-5" d="M17.68,35s-.12-.14-.19-.24a1.64,1.64,0,0,1-.28-.75s.08.2.19.45.28.52.28.54" transform="translate(-0.01)"/><path class="cls-5" d="M18.43,35c-.07,0-.15.12-.1.16s.05-.07.1-.1l.11,0c.09,0,0-.07-.11,0" transform="translate(-0.01)"/><path class="cls-5" d="M18.54,33.75s0,0-.05.08a.85.85,0,0,0,.05.5c0,.09.16.28.18.27a3.59,3.59,0,0,1-.17-.41.59.59,0,0,1,0-.35s0-.07,0-.09" transform="translate(-0.01)"/><path class="cls-5" d="M18.76,31a1.61,1.61,0,0,1-.23,0s0,0,0,0a.72.72,0,0,0,.23,0,.33.33,0,0,0,.14-.07s0,0,0,0l-.13,0" transform="translate(-0.01)"/><path class="cls-5" d="M19.79,31s0,0,0,0,0,0,0,0l0,0s.06,0,.06,0,0-.05,0-.06h0" transform="translate(-0.01)"/><path class="cls-5" d="M19.08,31.68s.09,0,.12,0a.11.11,0,0,0,.05-.05s0,0,0,0-.18.06-.18.07" transform="translate(-0.01)"/><path class="cls-5" d="M19.15,31.48c.05-.05-.11,0-.18,0h-.12s0,0,0,0,.07.05.12,0l.09-.06.08,0" transform="translate(-0.01)"/><path class="cls-5" d="M19,31.73a.49.49,0,0,0,.17.05s.05,0,.05,0l0,0c-.09,0-.24,0-.24,0" transform="translate(-0.01)"/><path class="cls-5" d="M16.5,32.2s0,0-.06,0-.21.16-.19.19.17-.11.21-.13a.07.07,0,0,0,0-.06s0,0,0,0" transform="translate(-0.01)"/><path class="cls-5" d="M17.86,36.08a.58.58,0,0,0-.05.2c0,.07.05-.08.08-.13s0-.06.08-.1,0-.08-.11,0" transform="translate(-0.01)"/><path class="cls-5" d="M19.15,31.07a.09.09,0,0,0-.07,0s0,0,0,0v0s.05,0,.07,0,0,0,0,.06,0,.06.05,0,0,0,0,0,0-.07,0-.09,0,0,0,0" transform="translate(-0.01)"/><path class="cls-5" d="M18.4,31.27a0,0,0,0,0,0,0s0,0,0,0,.05,0,.05,0,0,0,0,0" transform="translate(-0.01)"/><path class="cls-5" d="M18.15,31a.05.05,0,0,0,0,0,.2.2,0,0,0-.05.05s0,0,0,0,0,0,.06,0h0s0,0,.05,0a0,0,0,0,0,0-.06" transform="translate(-0.01)"/><path class="cls-5" d="M19.22,31s0,0,0,0,0,0,0,0l0,0s0,0,0,0a0,0,0,0,0,0,0,.18.18,0,0,0,0-.06l0,0" transform="translate(-0.01)"/><path class="cls-5" d="M19.72,31.43l0,0s0,.05,0,.05h.07c.05,0,0,0,.07,0h0s0,0,0,0a.23.23,0,0,0-.1,0s-.06-.05-.07,0" transform="translate(-0.01)"/><path class="cls-5" d="M19.81,31.23s0,0,0,0,0,0,0,0a.14.14,0,0,0,0,0s.05.05.05,0,0-.05,0-.05,0,0,0,0" transform="translate(-0.01)"/><path class="cls-5" d="M19.78,31.65s0,0-.05,0h0l0,0s.06,0,.06,0,0,0,0-.06a0,0,0,0,0,0,0" transform="translate(-0.01)"/><path class="cls-5" d="M19.74,31.79h0s0,0,0,0l0,0s.06.05.07,0a.15.15,0,0,0,0-.07v0" transform="translate(-0.01)"/><path class="cls-5" d="M19.7,31.94a.08.08,0,0,0-.05,0s0,0,0,0a.14.14,0,0,0,0,0l.07,0s0-.06,0-.08h0" transform="translate(-0.01)"/><path class="cls-5" d="M19.64,32.1h-.06l0,0,.05,0s.06.05.07,0a.14.14,0,0,0,0-.07l0,0" transform="translate(-0.01)"/><path class="cls-5" d="M19.5,32.42h-.05s0,0,0,0a.14.14,0,0,0,0,0s.06.06.07,0,0,0,0-.07l0,0" transform="translate(-0.01)"/><path class="cls-5" d="M19.58,32.26a.07.07,0,0,0-.07,0s0,0,0,0a.22.22,0,0,0,.05.06s.08.06.09,0a.19.19,0,0,0,0-.08l0,0" transform="translate(-0.01)"/><path class="cls-5" d="M19.43,32.57s0,0,0,0h0l0,0s.05,0,.05,0,0,0,0-.06h0" transform="translate(-0.01)"/><path class="cls-5" d="M19.36,32.7a0,0,0,0,0,0,0s0,0,0,0l0,0s0,0,.05,0,0,0,0,0v0" transform="translate(-0.01)"/><path class="cls-5" d="M19.28,32.82h0s0,0,0,0l0,0s0,0,0,0a.23.23,0,0,0,0,0l0,0" transform="translate(-0.01)"/><path class="cls-5" d="M19.22,32.92h0s0,0,0,0,0,0,0,0,0,0,0,0h0" transform="translate(-0.01)"/><path class="cls-5" d="M19.14,33h-.05l0,0,0,0s0,0,0,0h0" transform="translate(-0.01)"/><path class="cls-5" d="M19.05,33.13a0,0,0,0,0,0,0h0l0,0s0,0,0,0a.1.1,0,0,0,0,0h0" transform="translate(-0.01)"/><path class="cls-5" d="M19,33.23h0l0,0,0,0v0h0" transform="translate(-0.01)"/><path class="cls-5" d="M15.78,32.75s0,0,0,.06.05,0,.05,0,.06,0,0-.07,0,0-.07,0" transform="translate(-0.01)"/><polyline class="cls-5" points="9.23 11.57 10.26 14.41 11.43 11.57 12.56 11.57 13.72 14.4 14.76 11.57 15.73 11.57 14.27 14.96 13.12 14.96 11.99 12.2 10.8 14.96 9.65 14.96 8.23 11.57"/><path class="cls-5" d="M18.81,11.52a3.47,3.47,0,0,1,2.27.57,1.5,1.5,0,0,1,.47,1.18,1.43,1.43,0,0,1-.79,1.34,4.42,4.42,0,0,1-2,.4,3.65,3.65,0,0,1-2.14-.5,1.52,1.52,0,0,1-.43-.53,1.78,1.78,0,0,1-.15-.71,1.46,1.46,0,0,1,.17-.71,1.35,1.35,0,0,1,.46-.54,2.65,2.65,0,0,1,.9-.37,5.25,5.25,0,0,1,1.28-.13m0,.43a2,2,0,0,0-1.59.49,1.25,1.25,0,0,0-.24.82,1.18,1.18,0,0,0,.36.94,2.21,2.21,0,0,0,1.46.37,2,2,0,0,0,1.58-.49,1.3,1.3,0,0,0,.2-.8,1.27,1.27,0,0,0-.3-.93A2.17,2.17,0,0,0,18.8,12" transform="translate(-0.01)"/><path class="cls-5" d="M23.37,13.52V15h-.91V11.57h2.61a5.4,5.4,0,0,1,1.58.18,1.24,1.24,0,0,1,.46.33.6.6,0,0,1,.17.43.76.76,0,0,1-.47.69,3,3,0,0,1-.72.2,1.88,1.88,0,0,1,.79.36,1.1,1.1,0,0,1,.27.69c0,.21,0,.33.05.38a.63.63,0,0,0,.1.14h-.94a.18.18,0,0,1-.05-.11,2.12,2.12,0,0,1-.07-.39.94.94,0,0,0-.51-.74,3.69,3.69,0,0,0-1.44-.2m-.92-.44H25A2.82,2.82,0,0,0,26,13a.47.47,0,0,0,0-.91A3.48,3.48,0,0,0,25,12H23.37Z" transform="translate(-0.01)"/><path class="cls-5" d="M28.17,11.57h.92v2a1.48,1.48,0,0,0,.06.48.48.48,0,0,0,.21.27,2.5,2.5,0,0,0,1.25.23h1.22V15H30.42a5.18,5.18,0,0,1-1.06-.07,1.89,1.89,0,0,1-.7-.26.91.91,0,0,1-.37-.39,1.36,1.36,0,0,1-.12-.63" transform="translate(-0.01)"/><path class="cls-5" d="M32.5,11.57h2.19a8.65,8.65,0,0,1,1.34.07,2.08,2.08,0,0,1,1.23.66,1.41,1.41,0,0,1,.31.93,1.52,1.52,0,0,1-1,1.53,3.18,3.18,0,0,1-.68.15,8.92,8.92,0,0,1-1.07.05H32.5m.91-3v2.52h1.46a2.18,2.18,0,0,0,1.37-.33,1.14,1.14,0,0,0,.35-.89,1.24,1.24,0,0,0-.41-1,1,1,0,0,0-.51-.23A4,4,0,0,0,34.8,12Z" transform="translate(-0.01)"/><polyline class="cls-7" points="10.23 7.46 10.23 8.99 11.1 8.99 11.1 9.78 8.21 9.78 8.21 8.99 8.98 8.99 8.98 4.98 8.38 4.98 8.38 4.08 35.21 4.08 35.21 4.98 10.23 4.98 10.23 6.71 10.8 6.71 10.8 6.12 11.61 6.12 11.61 8.02 10.8 8.02 10.8 7.46"/><path class="cls-7" d="M33.32,6.64,33,7a3.63,3.63,0,0,0-.43.62V9H33v.79H31V9h.39V6.35H31V5.69H32.6v.82l.11-.15A4,4,0,0,1,33,6a1,1,0,0,1,.74-.39c.49,0,.76.26.76.69V8.07H33.37V6.59" transform="translate(-0.01)"/><rect class="cls-7" x="35.85" y="4.1" width="1.48" height="1.1"/><path class="cls-7" d="M19.68,6.64c-.08.09-.18.22-.3.35a4,4,0,0,0-.42.62V9h.37v.79H17.39V9h.4V6.35h-.4V5.69H19v.82l.12-.15A2.56,2.56,0,0,1,19.34,6a1,1,0,0,1,.73-.39c.5,0,.78.26.78.69V8.07H19.73V6.59" transform="translate(-0.01)"/><polyline class="cls-7" points="37.55 9.79 35.56 9.79 35.56 8.99 35.98 8.99 35.98 6.35 35.56 6.35 35.56 5.69 37.16 5.69 37.16 8.99 37.55 8.99"/><path class="cls-7" d="M24.14,6.64,23.85,7a4,4,0,0,0-.42.62V9h.37v.79H21.86V9h.39V6.35h-.39V5.69h1.57v.82l.11-.15A4,4,0,0,1,23.81,6a1,1,0,0,1,.73-.39c.5,0,.77.26.77.69V8.07H24.19V6.59" transform="translate(-0.01)"/><path class="cls-9" d="M28.15,5.63c1.07,0,1.51.13,1.5.87V9h.4v.79H27.37a.9.9,0,0,1-1-.9V8.35c0-.49.27-.91,1.12-.92h1V6.67c0-.38,0-.41-.4-.41s-.48,0-.48.41V7H26.52v-.4c0-.84.46-1,1.63-1m-.63,3.18c0,.19.08.32.28.32h.37c.18,0,.32-.05.32-.32V8H27.8a.29.29,0,0,0-.28.32Z" transform="translate(-0.01)"/><path class="cls-9" d="M14.83,7.56V6.46c0-.12-.07-.18-.24-.19h-.45c-.2,0-.25.08-.25.27v1m.53,2.31H14.3c-1.08,0-1.59-.15-1.59-1V6.65c0-.73.36-1,1.57-1h.16c1.1,0,1.58.24,1.58.85V8.07H13.87V9a.19.19,0,0,0,.05.1s.15.06.45.06c.49,0,.52,0,.52-.38V8.38H16V9c0,.77-.42.85-1.6.87" transform="translate(-0.01)"/></g></g></g></svg>