<svg xmlns="http://www.w3.org/2000/svg" xmlns:xlink="http://www.w3.org/1999/xlink" viewBox="0 0 94.47 27.95"><defs><style>.cls-1{fill:none;}.cls-2{fill:#1d1e1b;}.cls-3{clip-path:url(#clip-path);}</style><clipPath id="clip-path"><rect class="cls-1" width="94.47" height="27.95"/></clipPath></defs><title>logo-the-fountains</title><g id="Layer_2" data-name="Layer 2"><g id="Layer_1-2" data-name="Layer 1"><polygon class="cls-2" points="0 9 0 17.6 0.97 17.6 0.97 13.85 5.62 13.85 5.62 12.97 0.97 12.97 0.97 9.9 6.18 9.9 6.18 9 0 9"/><g class="cls-3"><path class="cls-2" d="M14.5,9.75a3.38,3.38,0,0,0-3.36,3.54,3.42,3.42,0,0,0,3.39,3.56,3.38,3.38,0,0,0,3.36-3.54A3.42,3.42,0,0,0,14.5,9.75m0,8a4.33,4.33,0,0,1-4.37-4.44,4.39,4.39,0,1,1,8.77,0,4.36,4.36,0,0,1-4.4,4.46"/><path class="cls-2" d="M30.68,13.93c0,2.5-1.44,3.8-3.59,3.8A3.37,3.37,0,0,1,23.52,14V9h1v4.94c0,1.85,1,2.9,2.62,2.9s2.6-1,2.6-2.84V9h1Z"/><polygon class="cls-2" points="42 9 42.94 9 42.94 17.6 42.17 17.6 36.62 10.55 36.62 17.6 35.67 17.6 35.67 9 36.58 9 42 15.89 42 9"/><polygon class="cls-2" points="51.08 17.6 50.1 17.6 50.1 9.9 47.22 9.9 47.22 9 53.97 9 53.97 9.9 51.08 9.9 51.08 17.6"/><path class="cls-2" d="M61.37,10.07l-2,4.38h3.92Zm4.39,7.53H64.71l-1-2.27H59L58,17.6H57l3.91-8.66h.91Z"/><rect class="cls-2" x="70.24" y="9" width="0.97" height="8.6"/><polygon class="cls-2" points="82.75 9 83.7 9 83.7 17.6 82.93 17.6 77.38 10.55 77.38 17.6 76.43 17.6 76.43 9 77.34 9 82.75 15.89 82.75 9"/><path class="cls-2" d="M91.67,12.83c1.91.42,2.8,1.12,2.8,2.45,0,1.48-1.23,2.44-2.94,2.44A5,5,0,0,1,88,16.35l.6-.72a4.11,4.11,0,0,0,2.95,1.22c1.16,0,1.92-.6,1.92-1.47s-.43-1.27-2.24-1.65c-2-.43-2.88-1.07-2.88-2.49s1.19-2.36,2.82-2.36a4.49,4.49,0,0,1,3,1.06l-.56.74a3.79,3.79,0,0,0-2.48-.93c-1.12,0-1.83.62-1.83,1.4s.44,1.28,2.33,1.68"/><polygon class="cls-2" points="38.59 0 38.59 0.52 40.28 0.52 40.28 5.01 40.85 5.01 40.85 0.52 42.53 0.52 42.53 0 38.59 0"/><polygon class="cls-2" points="48.62 0 48.62 2.23 45.73 2.23 45.73 0 45.17 0 45.17 5.01 45.73 5.01 45.73 2.76 48.62 2.76 48.62 5.01 49.19 5.01 49.19 0 48.62 0"/><polygon class="cls-2" points="52.18 0 52.18 5.01 55.84 5.01 55.84 4.5 52.75 4.5 52.75 2.74 55.48 2.74 55.48 2.23 52.75 2.23 52.75 0.52 55.8 0.52 55.8 0 52.18 0"/><path class="cls-2" d="M24.54,24.18h.39l1.68,3.72h-.45l-.43-1h-2l-.43,1h-.43Zm1,2.37-.84-1.88-.84,1.88Z"/><polygon class="cls-2" points="29.1 24.59 27.86 24.59 27.86 24.21 30.76 24.21 30.76 24.59 29.52 24.59 29.52 27.9 29.1 27.9 29.1 24.59"/><polygon class="cls-2" points="36.81 26.44 35.27 24.21 35.78 24.21 37.02 26.06 38.28 24.21 38.76 24.21 37.23 26.43 37.23 27.9 36.81 27.9 36.81 26.44"/><path class="cls-2" d="M41.47,24.18h.39l1.68,3.72H43.1l-.44-1h-2l-.44,1h-.43Zm1,2.37-.84-1.88-.84,1.88Z"/><path class="cls-2" d="M45.22,27.36l.25-.3a1.81,1.81,0,0,0,1.27.52c.5,0,.82-.26.82-.63h0c0-.34-.18-.54-1-.7s-1.24-.46-1.24-1.07h0a1.09,1.09,0,0,1,1.22-1,1.91,1.91,0,0,1,1.29.45l-.24.32a1.6,1.6,0,0,0-1.06-.4c-.48,0-.79.27-.79.6h0c0,.35.19.54,1,.71s1.2.48,1.2,1h0c0,.63-.52,1-1.26,1a2.12,2.12,0,0,1-1.5-.59"/><polygon class="cls-2" points="52.95 24.21 53.37 24.21 54.71 26.22 56.06 24.21 56.48 24.21 56.48 27.9 56.06 27.9 56.06 24.91 54.72 26.89 54.7 26.89 53.35 24.92 53.35 27.9 52.95 27.9 52.95 24.21"/><path class="cls-2" d="M60.15,24.18h.39l1.68,3.72h-.45l-.43-1h-2l-.44,1h-.42Zm1,2.37-.84-1.88-.84,1.88Z"/><polygon class="cls-2" points="64.22 24.21 64.63 24.21 64.63 27.52 66.71 27.52 66.71 27.9 64.22 27.9 64.22 24.21"/><polygon class="cls-2" points="68.75 24.21 69.16 24.21 69.16 27.52 71.24 27.52 71.24 27.9 68.75 27.9 68.75 24.21"/></g></g></g></svg>