<svg xmlns="http://www.w3.org/2000/svg" xmlns:xlink="http://www.w3.org/1999/xlink" viewBox="0 0 135.48 27.35"><defs><style>.cls-1{fill:none;}.cls-2{clip-path:url(#clip-path);}.cls-3{fill:#fff;}.cls-4{fill:#f1881a;}.cls-5{fill:#1ba6b8;}</style><clipPath id="clip-path" transform="translate(0)"><rect class="cls-1" width="135.48" height="27.35"/></clipPath></defs><title>logo-miral-horiziontal</title><g id="Layer_2" data-name="Layer 2"><g id="Layer_1-2" data-name="Layer 1"><g class="cls-2"><path class="cls-3" d="M75.19,24.66h-.1a1.45,1.45,0,0,1-1.46-1.45V4.15a1.46,1.46,0,0,1,1.46-1.46h.1a1.46,1.46,0,0,1,1.46,1.46V23.21a1.45,1.45,0,0,1-1.46,1.45" transform="translate(0)"/><path class="cls-3" d="M61,24.66h-.11a1.46,1.46,0,0,1-1.46-1.45V4.15a1.46,1.46,0,0,1,1.46-1.46H61a1.46,1.46,0,0,1,1.46,1.46V23.21A1.46,1.46,0,0,1,61,24.66" transform="translate(0)"/><path class="cls-3" d="M68.1,21.14H68a1.46,1.46,0,0,1-1.46-1.46v-12A1.46,1.46,0,0,1,68,6.21h.11a1.45,1.45,0,0,1,1.45,1.46v12a1.45,1.45,0,0,1-1.45,1.46" transform="translate(0)"/><path class="cls-4" d="M69.79,1.74A1.75,1.75,0,1,1,68,0a1.75,1.75,0,0,1,1.75,1.74" transform="translate(0)"/><path class="cls-5" d="M69.79,25.61A1.75,1.75,0,1,1,68,23.86a1.74,1.74,0,0,1,1.75,1.75" transform="translate(0)"/><path class="cls-3" d="M9.82,7.69a1.07,1.07,0,0,0-.92.51L5.46,13.64,2,8.2a1.07,1.07,0,0,0-.92-.51A1.09,1.09,0,0,0,0,8.78v10a.89.89,0,0,0,1.78,0V11.17l3.36,5.21a.36.36,0,0,0,.6,0L9.1,11.16v7.62a.89.89,0,0,0,.89.89h0a.89.89,0,0,0,.89-.89v-10A1.09,1.09,0,0,0,9.82,7.69" transform="translate(0)"/><path class="cls-3" d="M15.8,7.69a.9.9,0,0,0-.91.9V18.76a.91.91,0,0,0,1.82,0V8.59a.9.9,0,0,0-.91-.9" transform="translate(0)"/><path class="cls-3" d="M38,8.39a1.17,1.17,0,0,0-2.14,0L31.56,18.45a.85.85,0,0,0,.07.82.87.87,0,0,0,1.53-.13l1.05-2.46h5.47l1,2.46a.87.87,0,0,0,.8.53h.06a.88.88,0,0,0,.8-1.22ZM34.94,15l2-4.71L39,15Z" transform="translate(0)"/><path class="cls-3" d="M25.56,7.69H20.2V18.76a.91.91,0,1,0,1.81,0V15.24h2.6l2.88,4a.94.94,0,0,0,.74.38.88.88,0,0,0,.8-.5.87.87,0,0,0-.07-.93l-2.28-3.18a3.74,3.74,0,0,0,2.61-3.58v0a3.74,3.74,0,0,0-3.73-3.75M22,9.46h3.55a2,2,0,0,1,2,2v0a2,2,0,0,1-2,2H22Z" transform="translate(0)"/><path class="cls-3" d="M51.57,17.92H47.92a1.14,1.14,0,0,1-1.14-1.14V8.56a.87.87,0,0,0-.87-.87h-.09A.92.92,0,0,0,45,8.6v8.61a2.47,2.47,0,0,0,2.46,2.46h4.07a.88.88,0,1,0,0-1.75" transform="translate(0)"/><path class="cls-3" d="M115.5,19.66a1.18,1.18,0,1,0,1.17,1.17,1.17,1.17,0,0,0-1.17-1.17" transform="translate(0)"/><path class="cls-3" d="M119.42,19.66a1.18,1.18,0,1,0,1.17,1.17,1.17,1.17,0,0,0-1.17-1.17" transform="translate(0)"/><path class="cls-3" d="M92.78,5.69a1,1,0,0,0-1,1v9.86A3.21,3.21,0,0,1,89,19.73l-.31,0a3.14,3.14,0,0,1-3.13-3.14V14.39a1,1,0,0,0-1.91,0v2.1a5.15,5.15,0,0,0,4.85,5.17h.19a5,5,0,0,0,5-5.05V15.17h0V6.65a1,1,0,0,0-1-1" transform="translate(0)"/><path class="cls-3" d="M99.11,5.69a1,1,0,0,0-1,1v10.2a1,1,0,0,0,1.93,0V6.65a1,1,0,0,0-1-1" transform="translate(0)"/><path class="cls-3" d="M135.48,12.61a3.5,3.5,0,0,0-3.5-3.5h-1.49a4.09,4.09,0,0,0-3.94,4.09v2.73h-6.1c-1.43,0-2-.63-2-2.09V10.78a1,1,0,0,0-.77-1,1,1,0,0,0-1.15.94v3.1c0,1.46-.61,2.09-2,2.09h-8V10.79a1,1,0,0,0-1.94,0v7.49a2.31,2.31,0,0,1-2.3,2.31h-1a1,1,0,0,0,0,1.93h1a4.25,4.25,0,0,0,4.24-4.24v-.47h8a3.89,3.89,0,0,0,3.09-1.25,3.4,3.4,0,0,0,2.92,1.25h11.84a3.19,3.19,0,0,0,3.19-3.19Zm-1.87,1.87a1.45,1.45,0,0,1-1.45,1.45h-3.75V13.21A2.24,2.24,0,0,1,130.52,11h1.23a1.87,1.87,0,0,1,1.86,1.87Z" transform="translate(0)"/></g></g></g></svg>