<svg xmlns="http://www.w3.org/2000/svg" xmlns:xlink="http://www.w3.org/1999/xlink" viewBox="0 0 161 235.61"><defs><style>.cls-1{fill:none;}.cls-2{clip-path:url(#clip-path);}.cls-3{fill:#333;}.cls-4{fill:#f1881a;}.cls-5{fill:#1ba6b8;}</style><clipPath id="clip-path"><rect class="cls-1" width="161" height="235.61"/></clipPath></defs><title>logo-miral</title><g id="Layer_2" data-name="Layer 2"><g id="Layer_1-2" data-name="Layer 1"><g class="cls-2"><path class="cls-3" d="M30.1,198.89a3.3,3.3,0,0,0-2.82,1.56L16.73,217.14,6.17,200.45a3.3,3.3,0,0,0-2.82-1.56A3.35,3.35,0,0,0,0,202.24v30.64a2.73,2.73,0,0,0,5.46,0v-23.3l10.31,16a1.09,1.09,0,0,0,1.82,0l10.31-16v23.35a2.73,2.73,0,0,0,2.73,2.73h.09a2.73,2.73,0,0,0,2.73-2.73V202.24a3.35,3.35,0,0,0-3.35-3.35"/><path class="cls-3" d="M48.44,198.89a2.79,2.79,0,0,0-2.78,2.78v31.17a2.78,2.78,0,0,0,5.55,0V201.67a2.78,2.78,0,0,0-2.77-2.78"/><path class="cls-3" d="M116.62,201.05a3.56,3.56,0,0,0-6.55,0L96.76,231.89a2.66,2.66,0,1,0,4.89,2.11l3.23-7.55h16.77l3.19,7.54a2.68,2.68,0,0,0,2.46,1.62h.18a2.66,2.66,0,0,0,2.45-3.72Zm-9.5,20.12,6.17-14.44,6.12,14.44Z"/><path class="cls-3" d="M78.37,198.89H61.93v34a2.78,2.78,0,0,0,5.55,0V222h8l8.85,12.42a2.77,2.77,0,0,0,4.72-.34,2.75,2.75,0,0,0-.21-2.88l-7-9.74a11.48,11.48,0,0,0,8-11v-.12a11.48,11.48,0,0,0-11.43-11.51m-10.89,5.42H78.37a6.07,6.07,0,0,1,6,6.09v.12a6.07,6.07,0,0,1-6,6.09H67.48Z"/><path class="cls-3" d="M158.32,230.25H146.91a3.5,3.5,0,0,1-3.49-3.5l0-25.18a2.69,2.69,0,0,0-2.68-2.68l-.28,0a2.76,2.76,0,0,0-2.4,2.79v26.38a7.54,7.54,0,0,0,7.53,7.53h12.69a2.68,2.68,0,0,0,0-5.36"/><path class="cls-3" d="M99,178.66a3.65,3.65,0,1,0,3.63,3.62A3.65,3.65,0,0,0,99,178.66"/><path class="cls-3" d="M111.14,178.66a3.65,3.65,0,1,0,3.63,3.62,3.66,3.66,0,0,0-3.63-3.62"/><path class="cls-3" d="M28.39,135.29a3,3,0,0,0-3,3v30.62a10,10,0,0,1-8.79,10c-.32,0-.63.05-.94.05a9.76,9.76,0,0,1-9.74-9.74v-6.9a3,3,0,0,0-5.94,0v6.53a16,16,0,0,0,15.07,16l.61,0A15.7,15.7,0,0,0,31.35,169.2v-4.48h0V138.27a3,3,0,0,0-3-3"/><path class="cls-3" d="M48.07,135.29a3,3,0,0,0-3,3v31.66a3,3,0,1,0,6,0V138.27a3,3,0,0,0-3-3"/><path class="cls-3" d="M161,156.76a10.86,10.86,0,0,0-10.86-10.86h-4.65v0a12.71,12.71,0,0,0-12.23,12.69v8.47H114.33c-4.44,0-6.33-1.94-6.33-6.51v-9.48a3.06,3.06,0,0,0-2.39-3.05A3,3,0,0,0,102,151v9.6c0,4.57-1.91,6.51-6.37,6.51H70.78v-16a3,3,0,1,0-6,0v23.26a7.17,7.17,0,0,1-7.16,7.16H54.37a3,3,0,0,0,0,6h3.24c7.36,1,13.19-5.76,13.17-13.17v-1.47H95.66c4.14,0,7.44-1.34,9.59-3.87,1.92,2.57,5,3.87,9.08,3.87l36.78,0A9.89,9.89,0,0,0,161,163Zm-5.79,5.8a4.52,4.52,0,0,1-4.52,4.53H139.05v-8.47a6.92,6.92,0,0,1,6.54-6.9v0h3.84a5.78,5.78,0,0,1,5.78,5.78Z"/><path class="cls-3" d="M112.94,112.74h0a6.91,6.91,0,0,1-6.91-6.91V19.21a6.91,6.91,0,1,1,13.82,0v86.62a6.91,6.91,0,0,1-6.91,6.91"/><path class="cls-3" d="M48.06,112.74h0a6.92,6.92,0,0,1-6.91-6.91V19.21a6.91,6.91,0,1,1,13.82,0v86.62a6.91,6.91,0,0,1-6.91,6.91"/><path class="cls-3" d="M80.5,96.64h0a6.91,6.91,0,0,1-6.91-6.91V35.3a6.91,6.91,0,0,1,13.82,0V89.73a6.91,6.91,0,0,1-6.91,6.91"/><path class="cls-4" d="M88.48,8a8,8,0,1,1-8-8,8,8,0,0,1,8,8"/><path class="cls-5" d="M88.48,117.06a8,8,0,1,1-8-8,8,8,0,0,1,8,8"/></g></g></g></svg>