<svg xmlns="http://www.w3.org/2000/svg" xmlns:xlink="http://www.w3.org/1999/xlink" viewBox="0 0 45.99 47.35"><defs><style>.cls-1{fill:none;}.cls-2{clip-path:url(#clip-path);}.cls-3{fill:#004a6c;}</style><clipPath id="clip-path" transform="translate(0 0)"><rect class="cls-1" width="45.99" height="47.35"/></clipPath></defs><title>logo-yas-bay</title><g id="Layer_2" data-name="Layer 2"><g id="Layer_1-2" data-name="Layer 1"><g class="cls-2"><path class="cls-3" d="M2.23,1.07l9.19,11.5,5.17-4.14L10.71,1.07ZM18.1,8.6l4.16,5.21,4.88-3.9h8.62A10.23,10.23,0,0,1,41.91,12a6.48,6.48,0,0,0-4.74-10.9H27.52ZM14.3,29.3h7.34V15.68L14.3,21.55Zm13.57,0h7.89A9.15,9.15,0,0,0,42,13.4a7.51,7.51,0,0,1-4.78,1.7h-9.3ZM42.73,12.66a10.22,10.22,0,0,1-7,17.71h-9V14H37.17A6.47,6.47,0,0,0,41.1,12.7,9.18,9.18,0,0,0,35.76,11H27.52l-4.8,3.83V30.37H13.23V21l8.2-6.55L17.26,9.27l-6,4.81L0,0H11.23l6.2,7.76L27.14,0h10a7.55,7.55,0,0,1,5.56,12.66" transform="translate(0 0)"/></g><polygon class="cls-3" points="8.49 43.3 7.62 44.75 6.75 43.3 5.85 43.3 7.22 45.52 7.22 47.31 8.01 47.31 8.01 45.52 9.39 43.3 8.49 43.3"/><g class="cls-2"><path class="cls-3" d="M20.45,44.88c-.49-.13-.8-.22-.81-.54,0-.61,1.25-.42,1.81-.13v-.73c-.84-.4-2.58-.46-2.61.85a1.17,1.17,0,0,0,1,1.16c.48.14,1.14.19,1.18.59s-.26.56-.65.56A3.51,3.51,0,0,1,19,46.32V47c.84.51,2.83.54,2.82-.89,0-.92-.74-1.11-1.33-1.26" transform="translate(0 0)"/></g><polygon class="cls-3" points="42.75 43.3 41.88 44.75 41.01 43.3 40.12 43.3 41.49 45.52 41.49 47.31 42.27 47.31 42.27 45.52 43.65 43.3 42.75 43.3"/><g class="cls-2"><path class="cls-3" d="M30.37,46.06a.5.5,0,0,0-.46-.53H28.66v1h1.25a.48.48,0,0,0,.46-.51m-1.71-2v.79h1.13c.26,0,.43-.12.43-.38S30.1,44,29.79,44Zm2.5,2.11a1.18,1.18,0,0,1-1.25,1.16h-2v-4h1.92A1.12,1.12,0,0,1,31,44.39a.9.9,0,0,1-.38.75,1.25,1.25,0,0,1,.53,1" transform="translate(0 0)"/></g><path class="cls-3" d="M14,44.21l.63,1.87H13.37Zm-.49-.91-1.41,4H13l.16-.49h1.76l.16.49h.86l-1.41-4Z" transform="translate(0 0)"/><path class="cls-3" d="M35.76,44.21l.62,1.87H35.13Zm-.5-.91-1.4,4h.85l.17-.49h1.75l.17.49h.86l-1.42-4Z" transform="translate(0 0)"/><g class="cls-2"><path class="cls-3" d="M20.85,37.74a.68.68,0,0,1-.69.68H18.69a.21.21,0,0,1-.22-.21V34.45h-.79v3.76a1,1,0,0,0,1,1h1.47a1.48,1.48,0,0,0,1.48-1.48V35.8h-.79Z" transform="translate(0 0)"/><path class="cls-3" d="M15.11,36.55h-.67v-.29a.59.59,0,0,1,.33-.52.8.8,0,0,1,.85.12l.46-.65A1.57,1.57,0,0,0,14.41,35a1.38,1.38,0,0,0-.77,1.22v1.09h1.47a.54.54,0,1,1,0,1.07H7.33a.67.67,0,0,1-.68-.68V36.26h-.8v1.48a1.49,1.49,0,0,0,1.48,1.48h7.78a1.34,1.34,0,0,0,0-2.67" transform="translate(0 0)"/><path class="cls-3" d="M19.94,39.91a.42.42,0,0,0-.42.42.43.43,0,0,0,.42.43.44.44,0,0,0,.43-.43.43.43,0,0,0-.43-.42" transform="translate(0 0)"/><path class="cls-3" d="M10.74,39.91a.43.43,0,0,0-.43.42.43.43,0,0,0,.86,0,.43.43,0,0,0-.43-.42" transform="translate(0 0)"/><path class="cls-3" d="M11.86,39.91a.43.43,0,0,0-.44.42.44.44,0,0,0,.44.43.43.43,0,0,0,.42-.43.42.42,0,0,0-.42-.42" transform="translate(0 0)"/><path class="cls-3" d="M42.85,35.8v1.94a.67.67,0,0,1-.68.68H40.7a.21.21,0,0,1-.22-.21V34.45h-.79v3.76a1,1,0,0,0,1,1h1.47a1.48,1.48,0,0,0,1.48-1.48V35.8Z" transform="translate(0 0)"/><path class="cls-3" d="M37.37,37.8c0,.34,0,.62-.39.62H35.35V36.26h-.79v2.16H32.48V36.26h-.79V38.7a1.24,1.24,0,0,1-.92,1.19,2.26,2.26,0,0,1-1.56-.18,1.29,1.29,0,0,1-.55-1V37.54h-.79v1.13a2,2,0,0,0,.32,1.1,2.27,2.27,0,0,0,2.26,1,2,2,0,0,0,2-1.51H37c.78,0,1.19-.64,1.19-1.42v-2h-.8Z" transform="translate(0 0)"/><path class="cls-3" d="M42.49,39.91a.43.43,0,0,0-.44.42.44.44,0,0,0,.44.43.43.43,0,0,0,.42-.43.42.42,0,0,0-.42-.42" transform="translate(0 0)"/><path class="cls-3" d="M41.37,39.91a.43.43,0,0,0-.43.42.44.44,0,0,0,.43.43.43.43,0,0,0,.42-.43.42.42,0,0,0-.42-.42" transform="translate(0 0)"/></g></g></g></svg>