<svg xmlns="http://www.w3.org/2000/svg" xmlns:xlink="http://www.w3.org/1999/xlink" viewBox="0 0 71.66 55.78"><defs><style>.cls-1{fill:none;}.cls-2{clip-path:url(#clip-path);}.cls-3{fill:#8c734b;}</style><clipPath id="clip-path" transform="translate(0 0)"><rect class="cls-1" width="71.66" height="55.78"/></clipPath></defs><title>logo-wahat-al-karama</title><g id="Layer_2" data-name="Layer 2"><g id="Layer_1-2" data-name="Layer 1"><g class="cls-2"><path class="cls-3" d="M1,55.35C1,55.16.89,55,.82,54.7S.67,54.21.59,54l-.24-.76c-.07-.24-.14-.46-.2-.65S0,52.21,0,52.12l.13,0H.4l.13,0c.07.27.14.52.2.76s.13.47.2.71.16.5.24.77.18.57.28.91h0c0-.1.08-.23.14-.4s.12-.35.18-.56L2,53.68c.07-.22.14-.43.2-.63s.12-.39.18-.55.08-.29.1-.38a.62.62,0,0,0,.18,0,.59.59,0,0,0,.17,0l.12.39c0,.17.11.35.17.56s.13.41.21.63.14.44.21.64.12.38.18.55.1.29.13.38h0c0-.08.06-.2.11-.37s.11-.35.18-.55.13-.43.2-.66l.2-.65c.06-.21.12-.4.16-.56a2.64,2.64,0,0,0,.1-.36l.1,0h.18l.1,0c0,.08-.09.21-.16.4s-.14.4-.22.65-.18.49-.27.76-.17.53-.26.77-.15.46-.22.66-.11.33-.15.42l-.18,0-.18,0c-.16-.5-.32-1-.47-1.49s-.33-1-.51-1.55h0c0,.08-.07.19-.11.33s-.1.29-.16.46l-.19.55c-.07.19-.14.39-.2.59s-.14.39-.2.58-.12.37-.18.53l-.18,0-.19,0L1,55.35" transform="translate(0 0)"/><path class="cls-3" d="M7.54,54.12H8.71l-.59-1.35ZM9.9,55.78l-.14,0H9.48l-.14,0c0-.09-.06-.18-.11-.3a2.67,2.67,0,0,0-.14-.36l-.15-.39a3.59,3.59,0,0,1-.15-.37H7.44c-.11.28-.22.54-.31.8s-.16.45-.21.62l-.19,0-.2,0c.29-.63.57-1.24.84-1.86l.83-1.87h.1c.08.2.18.43.27.67l.31.72c.1.25.2.49.31.73l.29.68.24.55a3.57,3.57,0,0,0,.18.38" transform="translate(0 0)"/><path class="cls-3" d="M14.67,52.81l0-.69.13,0H15l.13,0,0,.69c0,.22,0,.45,0,.69v.91c0,.24,0,.47,0,.69l0,.67h-.52l0-.67c0-.22,0-.45,0-.69v-.48H12.45v.48c0,.24,0,.47,0,.69l0,.67H12c0-.22,0-.44,0-.67s0-.45,0-.69V53.5c0-.24,0-.47,0-.69s0-.46,0-.69l.13,0h.25l.14,0,0,.69c0,.22,0,.45,0,.69v.18h2.23V53.5c0-.24,0-.47,0-.69" transform="translate(0 0)"/><path class="cls-3" d="M18.24,54.12h1.18l-.6-1.35Zm2.36,1.66-.14,0h-.28l-.14,0-.1-.3-.14-.36c-.06-.13-.11-.26-.16-.39l-.15-.37H18.14l-.31.8a6.08,6.08,0,0,0-.2.62l-.2,0-.2,0c.29-.63.57-1.24.84-1.86s.55-1.24.83-1.87H19l.28.67.3.72c.1.25.21.49.31.73l.29.68.24.55.18.38" transform="translate(0 0)"/><path class="cls-3" d="M23.07,52.39h-.59l-.29,0-.25,0a1.11,1.11,0,0,0,0-.17,1.37,1.37,0,0,0,0-.16l.68,0H24l.68,0a.56.56,0,0,0,0,.17.5.5,0,0,0,0,.16l-.25,0-.29,0h-.6c0,.37,0,.74,0,1.11v.91c0,.24,0,.47,0,.69l0,.67h-.52l0-.67c0-.22,0-.45,0-.69V53.5c0-.37,0-.74,0-1.11" transform="translate(0 0)"/><path class="cls-3" d="M30.49,54.12h1.17l-.59-1.35Zm2.36,1.66-.14,0h-.28l-.14,0c0-.09-.06-.18-.11-.3a2.67,2.67,0,0,0-.14-.36l-.15-.39a3.59,3.59,0,0,1-.15-.37H30.39c-.11.28-.22.54-.31.8s-.16.45-.21.62l-.19,0-.2,0c.29-.63.57-1.24.84-1.86l.83-1.87h.1c.08.2.18.43.27.67l.31.72c.1.25.2.49.31.73l.29.68.24.55a3.57,3.57,0,0,0,.18.38" transform="translate(0 0)"/><path class="cls-3" d="M35,52.81c0-.23,0-.46,0-.69l.13,0h.25l.14,0,0,.69c0,.22,0,.45,0,.69,0,.44,0,.83,0,1.16s0,.62,0,.88h.72a5,5,0,0,0,.75-.06.61.61,0,0,0,0,.16.39.39,0,0,0,0,.14h-2c0-.22,0-.44,0-.67s0-.45,0-.69V53.5c0-.24,0-.47,0-.69" transform="translate(0 0)"/><path class="cls-3" d="M42.22,55.1c0-.22,0-.45,0-.69V53.5c0-.24,0-.47,0-.69l0-.69.13,0h.26l.13,0,0,.69c0,.22,0,.45,0,.69v.29s0,0,0,0a.11.11,0,0,0,.07,0,3.2,3.2,0,0,0,.39-.36l.42-.42c.14-.14.27-.29.41-.44l.39-.44.11,0h.23l.13,0-.42.37-.47.45-.46.45-.35.39.87,1,.89,1H44.3c-.13-.14-.27-.31-.43-.5l-.45-.54-.4-.48L42.76,54s0,0-.07,0,0,0,0,0v.46c0,.24,0,.47,0,.69l0,.67h-.52l0-.67" transform="translate(0 0)"/><path class="cls-3" d="M47.78,54.12H49l-.59-1.35Zm2.36,1.66-.14,0h-.29l-.14,0c0-.09-.06-.18-.1-.3s-.09-.24-.14-.36-.1-.26-.16-.39L49,54.36H47.68c-.12.28-.22.54-.31.8s-.16.45-.21.62l-.2,0-.19,0c.28-.63.56-1.24.84-1.86s.55-1.24.82-1.87h.1c.09.2.18.43.28.67s.2.48.31.72l.3.73c.11.24.2.47.29.68l.25.55a3.57,3.57,0,0,0,.18.38" transform="translate(0 0)"/><path class="cls-3" d="M52.85,53.82h.2a2.09,2.09,0,0,0,.34,0,1.2,1.2,0,0,0,.33-.13.85.85,0,0,0,.25-.25.82.82,0,0,0,.09-.4.69.69,0,0,0-.07-.34.7.7,0,0,0-.2-.22.81.81,0,0,0-.27-.11,1.33,1.33,0,0,0-.28,0h-.31l-.21,0c0,.2,0,.39,0,.58s0,.38,0,.58v.3l.16,0m-.61-1,0-.69.31,0h.91a1.87,1.87,0,0,1,.42,0,1.29,1.29,0,0,1,.36.14.75.75,0,0,1,.24.26,1,1,0,0,1,.08.4.8.8,0,0,1-.11.44,1.15,1.15,0,0,1-.28.3,1.7,1.7,0,0,1-.35.19l-.35.09.18.22.25.32.29.36.28.36.26.32c.09.09.15.17.2.21h-.63L54,55.44,53.67,55l-.4-.51c-.14-.17-.26-.31-.38-.43h-.2v.39c0,.24,0,.47,0,.69l0,.67h-.52l0-.67c0-.22,0-.45,0-.69V53.5c0-.24,0-.47,0-.69" transform="translate(0 0)"/><path class="cls-3" d="M57.79,54.12H59l-.59-1.35Zm2.36,1.66-.15,0h-.28l-.14,0c0-.09-.06-.18-.1-.3s-.09-.24-.14-.36-.1-.26-.16-.39L59,54.36H57.69c-.12.28-.22.54-.31.8s-.16.45-.21.62l-.2,0-.19,0,.84-1.86.82-1.87h.1c.09.2.18.43.28.67l.3.72.31.73c.11.24.2.47.29.68s.17.39.25.55a3.57,3.57,0,0,0,.18.38" transform="translate(0 0)"/><path class="cls-3" d="M63.46,53.52,64.24,55l.16-.29c.07-.12.14-.27.23-.43l.29-.53.31-.58c.1-.2.2-.39.31-.57l.28-.53h.07c0,.34.08.67.11,1s.07.63.11.93.07.61.1.91l.12.9-.13,0H66l-.12,0c0-.48-.08-.93-.12-1.38s-.08-.89-.14-1.36h0c-.25.45-.49.9-.72,1.34s-.46.9-.68,1.38h0l-.67-1.34c-.23-.45-.47-.91-.7-1.38h0q0,.33-.09.72c0,.26,0,.51-.08.76s0,.49-.06.71,0,.4,0,.55l-.19,0-.18,0c0-.29.09-.6.14-.92l.15-1,.12-.95c0-.32.08-.62.11-.9h.09c.24.5.49,1,.74,1.47" transform="translate(0 0)"/><path class="cls-3" d="M69.3,54.12h1.17l-.59-1.35Zm2.36,1.66-.14,0h-.28l-.14,0c0-.09-.06-.18-.11-.3a2.67,2.67,0,0,0-.14-.36l-.15-.39a3.59,3.59,0,0,1-.15-.37H69.2c-.11.28-.22.54-.31.8s-.16.45-.21.62l-.19,0-.2,0c.29-.63.57-1.24.84-1.86L70,52.05h.1c.08.2.18.43.27.67l.31.72c.1.25.2.49.31.73l.29.68.24.55a3.57,3.57,0,0,0,.18.38" transform="translate(0 0)"/><path class="cls-3" d="M46.18,41.92H46l-.19,0c0,.32,0,.63,0,.94s0,.62,0,.94V45c0,.32,0,.68,0,1s0,.56,0,.86l.72,0v-.29c0-.36,0-.76,0-1.2V43.76c0-.32,0-.63,0-.94s0-.62,0-.94l-.2,0h-.18" transform="translate(0 0)"/><path class="cls-3" d="M44.84,42.82c0-.31,0-.62,0-.94l-.2,0h-.37l-.19,0c0,.32,0,.63,0,.94s0,.62,0,.94V45c0,.2,0,.42,0,.63V46c0,.36-.16.55-.48.55H34.1V45.32c0-.93-.6-1.39-1.64-1.39H31.22l.59-.6.95-.78h-.95a13.72,13.72,0,0,1-1.48,1.65h2c.76,0,1.13.26,1.13.77v1.54H21.3c-.43,0-.64-.24-.64-.73v-.29c0-.29,0-1.31,0-1.61h0l-.15,0-.17,0h-.17l-.19,0c0,.32,0,1.36,0,1.67s0,.56,0,.85,0,.46,0,.66a2.27,2.27,0,0,1-.12.6.71.71,0,0,1-.08.15.82.82,0,0,1-.2.25.67.67,0,0,1-.36.12l-.12,0,.06.2a1.45,1.45,0,0,0,.59-.12,1.39,1.39,0,0,0,.46-.33,1.5,1.5,0,0,0,.3-.48,1.63,1.63,0,0,0,.11-.59v-.15a.84.84,0,0,0,.47.11H43.85a.91.91,0,0,0,1-1h0c0-.35,0-.07,0-.52v-.41c0-.35,0-.74,0-1.16s0-.63,0-.94" transform="translate(0 0)"/><path class="cls-3" d="M65.55,41.92h-.18l-.2,0c0,.32,0,.63,0,.94s0,.62,0,.94V45c0,.32,0,.68,0,1s0,.56,0,.86l.72,0V45.34c0-.45,0-1,0-1.58,0-.32,0-.63,0-.94s0-.62,0-.94l-.19,0h-.19" transform="translate(0 0)"/><path class="cls-3" d="M18.44,46c0,.3,0,.56-.05.86l.72,0v-.29c0-.36,0-.76,0-1.2V43.76c0-.32,0-.63,0-.94s0-.62,0-.94l-.19,0h-.38l-.19,0c0,.32,0,.63,0,.94s0,.62,0,.94V45c0,.32,0,.68,0,1" transform="translate(0 0)"/><path class="cls-3" d="M15.94,46.53c-.41,0-.62-.38-.62-.93,0-.71.27-1.19.82-1.19h.63v2.11Zm-12.24,0c-.41,0-.61-.38-.61-.93,0-.71.27-1.19.82-1.19H4.5l0,1.85v.26Zm11.36-2a1.65,1.65,0,0,0-.43,1.17,1.08,1.08,0,0,0,.28.79H5.21l0-2,0-.72a1.67,1.67,0,0,1-.71,0v.35H4a1.47,1.47,0,0,0-1.12.45,1.61,1.61,0,0,0-.43,1.17,1.14,1.14,0,0,0,.35.88,1.29,1.29,0,0,0,.91.25H17.41V44.1H16.19a1.49,1.49,0,0,0-1.13.45" transform="translate(0 0)"/><path class="cls-3" d="M68,46.53c-.41,0-.62-.38-.62-.93,0-.71.27-1.19.82-1.19h.63v2.11Zm1.47.26V44.1H68.25a1.51,1.51,0,0,0-1.13.45,1.65,1.65,0,0,0-.42,1.17,1.08,1.08,0,0,0,.35.87,1.25,1.25,0,0,0,.91.25h.88a1.55,1.55,0,0,1,0,.22,2.45,2.45,0,0,1-.12.6.89.89,0,0,1-.27.4.79.79,0,0,1-.49.14l.06.2a1.45,1.45,0,0,0,.59-.12,1.43,1.43,0,0,0,.47-.33,1.5,1.5,0,0,0,.3-.48,1.64,1.64,0,0,0,.1-.6v-.09" transform="translate(0 0)"/><path class="cls-3" d="M50.11,46.53c-.41,0-.62-.38-.62-.93,0-.71.27-1.19.82-1.19h.59l0,1.84h0v.27Zm14-.57h0a5.28,5.28,0,0,0-.26-.54,3.25,3.25,0,0,0-1.29-1.52.93.93,0,0,0-.47-.13h-.1a.52.52,0,0,0-.17,0,.94.94,0,0,0-.41.31,1.65,1.65,0,0,0-.33.94l.39,0a1.29,1.29,0,0,1-.08-.4.65.65,0,0,1,.13-.41A.43.43,0,0,1,61.8,44a.73.73,0,0,1,.4.13,3.78,3.78,0,0,1,1.38,2.34h-12l0-2v-.72a1.61,1.61,0,0,1-.7,0v.35h-.53a1.51,1.51,0,0,0-1.13.45,1.65,1.65,0,0,0-.43,1.17,1.08,1.08,0,0,0,.36.87,1.25,1.25,0,0,0,.91.26H64.32a5,5,0,0,0-.26-.89Z" transform="translate(0 0)"/><path class="cls-3" d="M4.19,43a.4.4,0,0,0,.41-.4.41.41,0,0,0-.82,0,.4.4,0,0,0,.41.4" transform="translate(0 0)"/><path class="cls-3" d="M5.52,43a.4.4,0,1,0,0-.8.41.41,0,0,0-.4.4.39.39,0,0,0,.4.4" transform="translate(0 0)"/><path class="cls-3" d="M50.6,43a.39.39,0,0,0,.4-.4.4.4,0,0,0-.4-.4.41.41,0,0,0-.41.4.4.4,0,0,0,.41.4" transform="translate(0 0)"/><path class="cls-3" d="M51.93,43a.4.4,0,0,0,.41-.4.41.41,0,0,0-.82,0,.4.4,0,0,0,.41.4" transform="translate(0 0)"/></g><path class="cls-3" d="M56.65,32.24,55.58,34h2.87Zm.05.41,1.12,1.08H56Z" transform="translate(0 0)"/><path class="cls-3" d="M2.69.55,4.8,2.34V33.73H2.69ZM2.43,0V34H5.05V2.22Z" transform="translate(0 0)"/><path class="cls-3" d="M5.7,9.12V34h8.79ZM6,10.62l8.17,23.11H6Z" transform="translate(0 0)"/><path class="cls-3" d="M22.56,6.52,11,9.42,26.21,34h1.48Zm-.2.32,5,26.89h-1L11.4,9.58Z" transform="translate(0 0)"/><path class="cls-3" d="M23.2,6.44,28.33,34l4.74-22.91Zm.35.45,9.22,4.33L28.35,32.65Z" transform="translate(0 0)"/><path class="cls-3" d="M14.21,21.38,18.68,34h5.55ZM15,22.74l8.73,11H18.86Z" transform="translate(0 0)"/><path class="cls-3" d="M9.62,8.41l3.93,11.1L25.07,34h.38Zm1,2.16,13.6,22L13.78,19.39Z" transform="translate(0 0)"/><path class="cls-3" d="M7.9,13.42,15.18,34H18l-5-14.2Zm.75,1.34,4.11,5.15,4.87,13.82H15.36Z" transform="translate(0 0)"/><path class="cls-3" d="M32.18,18.58,29,34h2.68l2.7-8.91Zm.06,1,1.87,5.52-2.62,8.65H29.32Z" transform="translate(0 0)"/><path class="cls-3" d="M33.71,11.16l-1.27,6.16L34.7,24l3.74-12.33Zm.2.28,4.19.47L34.69,23.18l-2-5.88Z" transform="translate(0 0)"/><path class="cls-3" d="M34.73,26.13,32.35,34h5Zm0,.84L37,33.73H32.7Z" transform="translate(0 0)"/><path class="cls-3" d="M37.23,17.88l-2.18,7.18,3,8.93h2.87Zm0,1,3.41,14.85H38.25l-2.93-8.67Z" transform="translate(0 0)"/><path class="cls-3" d="M38.23,14.6l-.62,2,4,17.34,4.48-11.68Zm.12.48,7.44,7.29L41.67,33.11l-3.8-16.45Z" transform="translate(0 0)"/><path class="cls-3" d="M46.61,22.75,42.28,34h6.61l1.31-4.51-1.71-5Zm.1.44,1.56,1.41,1.66,4.88L48.7,33.73h-6Z" transform="translate(0 0)"/><path class="cls-3" d="M50.57,30.54l-1,3.45h2.16Zm0,.86.79,2.33H49.91Z" transform="translate(0 0)"/><path class="cls-3" d="M51.49,27.32l-.62,2.16L52.42,34h2.39l1.34-2.19Zm.13.48,4.21,4-1.16,1.89H52.61l-1.47-4.25Z" transform="translate(0 0)"/><path class="cls-3" d="M5.7,2.45V7.24l1.53,4.33L12.32,18,7.51,4.37ZM6,3.1,7.28,4.51l4.29,12.1L7.46,11.44,6,7.2Z" transform="translate(0 0)"/><path class="cls-3" d="M53.8,19.41l-2.1,7.22,4.81,4.6,3.38-5.48Zm.13.5,5.63,5.87-3.11,5L52,26.55Z" transform="translate(0 0)"/><path class="cls-3" d="M60.33,26.28,57,31.7,59.39,34h3.74V31.28Zm0,.51,2.55,4.56v2.38H59.5l-2.19-2.07Z" transform="translate(0 0)"/><path class="cls-3" d="M63.13,21.74l-2.42,3.91L63.13,30Zm-.26.91V29L61,25.66Z" transform="translate(0 0)"/><path class="cls-3" d="M63.77,24.57v6.55L65.37,34h4.1Zm.26.92,5,8.24H65.52L64,31.05Z" transform="translate(0 0)"/><path class="cls-3" d="M64,33.43l.16.3H64Zm-.26.56h.86l-.86-1.56Z" transform="translate(0 0)"/><path class="cls-3" d="M49.4,25.16l1.11,3.22L51,26.83ZM50,26.21l.65.69-.19.65Z" transform="translate(0 0)"/></g></g></svg>