<svg xmlns="http://www.w3.org/2000/svg" xmlns:xlink="http://www.w3.org/1999/xlink" viewBox="0 0 91.82 24.36"><defs><style>.cls-1{fill:none;}.cls-2{clip-path:url(#clip-path);}.cls-3{fill:#2f2d31;}</style><clipPath id="clip-path" transform="translate(-0.07 -0.02)"><rect class="cls-1" width="91.9" height="24.39"/></clipPath></defs><title>logo-saadiyat</title><g id="Layer_2" data-name="Layer 2"><g id="Layer_1-2" data-name="Layer 1"><g class="cls-2"><path class="cls-3" d="M33.72,7.47c-1.34,3.47-5.26.13-5.38,0-2.83,5-10.82-.1-10.84-.1-.48.35-1.57,1.12-2.09,1.44a18.6,18.6,0,0,1-3.89,1.81,12.11,12.11,0,0,1-2.86.58A6.85,6.85,0,0,1,5.89,11,3.41,3.41,0,0,1,3.47,7.85,5.78,5.78,0,0,1,4.3,4.51,34.82,34.82,0,0,1,7.83,0C7.49.22,7,.47,6.68.68A14.79,14.79,0,0,0,2.83,4.14,12.19,12.19,0,0,0,.65,8.54a23.34,23.34,0,0,0-.49,7.22C.44,18.32,2,24.38,7.8,24.38c8.82,0,9.62-13.27,9.68-14a4.28,4.28,0,0,0,2.25,3.18c3,1.43,7.67-2.16,8.63-3.83a2.33,2.33,0,0,0,.87,1.85c1.65,1,3.92-1.52,4.34-2.79a3.08,3.08,0,0,0,.15-1.31" transform="translate(-0.07 -0.02)"/><path class="cls-3" d="M40.28,23a2.84,2.84,0,0,1-1.9-1.26l.33-.37c.57.81.92,1.07,1.55,1.17a1.23,1.23,0,0,0,1-.24,1.06,1.06,0,0,0,.41-.73,1,1,0,0,0-.21-.75,3.8,3.8,0,0,0-1.06-.78,6.66,6.66,0,0,1-1.1-.7,1.87,1.87,0,0,1-.57-.74,1.78,1.78,0,0,1-.13-.91,1.63,1.63,0,0,1,.63-1.16,1.75,1.75,0,0,1,1.31-.33,2.06,2.06,0,0,1,.78.22,2.17,2.17,0,0,1,.78.74l-.39.31a3.81,3.81,0,0,0-.24-.34,1.37,1.37,0,0,0-.92-.48.94.94,0,0,0-.77.18.93.93,0,0,0-.29.57.85.85,0,0,0,.22.69,4.54,4.54,0,0,0,1.07.79,11.6,11.6,0,0,1,1.13.71,1.81,1.81,0,0,1,.56.72,1.92,1.92,0,0,1,.14,1,1.83,1.83,0,0,1-.73,1.33,2.13,2.13,0,0,1-1.58.37" transform="translate(-0.07 -0.02)"/><path class="cls-3" d="M49.15,23c-.37-.94-.52-1.29-.52-1.29l-.48-1.14H45.89L45,23h-.59l2.83-6.84h.34L50.43,23ZM47,17.79l-1,2.36H48Z" transform="translate(-0.07 -0.02)"/><path class="cls-3" d="M57.34,23c-.38-.94-.53-1.29-.53-1.29l-.48-1.14H54.07L53.13,23h-.59l2.83-6.84h.34L58.61,23Zm-2.16-5.24-1,2.36h1.94Z" transform="translate(-0.07 -0.02)"/><path class="cls-3" d="M66,22.08a2.61,2.61,0,0,1-.92.63,3.8,3.8,0,0,1-1,.26,10.49,10.49,0,0,1-1.28.06H61V16.18h1.93a4.78,4.78,0,0,1,2.32.46,2.9,2.9,0,0,1,1.26,1.24,3.8,3.8,0,0,1,.41,1.81,3.9,3.9,0,0,1-.22,1.35,2.7,2.7,0,0,1-.62,1M64.8,17.32a1.93,1.93,0,0,0-.84-.54,4.46,4.46,0,0,0-1.21-.13h-.63v5.91H63a3.45,3.45,0,0,0,1.36-.22,1.81,1.81,0,0,0,.86-.87,3.51,3.51,0,0,0,.36-1.7,4.87,4.87,0,0,0-.21-1.45,2.37,2.37,0,0,0-.59-1" transform="translate(-0.07 -0.02)"/><polygon class="cls-3" points="69.37 23.01 69.37 21.17 69.37 17.92 69.37 16.17 70.55 16.17 70.55 17.92 70.55 21.17 70.55 23.01 69.37 23.01"/><polygon class="cls-3" points="76.72 20.3 76.72 23.01 75.54 23.01 75.54 20.36 72.93 16.17 74.39 16.17 76.48 19.77 78.56 16.17 79.22 16.17 76.72 20.3"/><path class="cls-3" d="M84.13,23c-.38-.94-.53-1.29-.53-1.29l-.47-1.14H80.86L79.92,23h-.59l2.83-6.84h.34L85.4,23ZM82,17.79l-1,2.36H83Z" transform="translate(-0.07 -0.02)"/><polygon class="cls-3" points="89.92 16.62 88.95 16.62 88.95 21.14 88.95 23.01 87.77 23.01 87.77 21.14 87.77 16.62 86.92 16.62 85.04 16.62 85.06 16.17 91.7 16.17 91.71 16.62 89.92 16.62"/><path class="cls-3" d="M42.18,7.29a.51.51,0,0,0,.57-.58.6.6,0,0,0-.57-.6.53.53,0,0,0-.58.59.52.52,0,0,0,.58.59" transform="translate(-0.07 -0.02)"/><path class="cls-3" d="M46.72,8.4V9.94c0,.86-.37,1.28-1.11,1.28H40.53c-1,0-1.65-.87-1.65-2.28a2.41,2.41,0,0,1,.36-1.35l0-.06h-.6l0,0a3.45,3.45,0,0,0-.38,1.66c0,1.63.83,2.68,2.13,2.68h5.5a1.54,1.54,0,0,0,1.62-1.73V6.59l-1,.26Z" transform="translate(-0.07 -0.02)"/><path class="cls-3" d="M43.79,7.29a.52.52,0,0,0,.58-.58.59.59,0,0,0-.58-.6.53.53,0,0,0-.58.59.52.52,0,0,0,.58.59" transform="translate(-0.07 -0.02)"/><path class="cls-3" d="M53.07,12.88a.52.52,0,0,0-.58.59.59.59,0,1,0,1.17,0,.59.59,0,0,0-.59-.59" transform="translate(-0.07 -0.02)"/><path class="cls-3" d="M54.7,12.88a.52.52,0,0,0-.58.59.58.58,0,1,0,1.16,0,.59.59,0,0,0-.58-.59" transform="translate(-0.07 -0.02)"/><path class="cls-3" d="M56.3,8.4V9.94c0,.86-.36,1.28-1.1,1.28H50.91c-.73,0-1.09-.42-1.09-1.28V3.88l-1,.25L49,5.62v4.54c0,1.15.54,1.73,1.61,1.73h4.9a1.54,1.54,0,0,0,1.61-1.73V6.59l-1,.26Z" transform="translate(-0.07 -0.02)"/><path class="cls-3" d="M88.73,5.67V9.94c0,.86-.36,1.28-1.11,1.28h-1.9c-.74,0-1.1-.41-1.1-1.25V6.59l-1,.26.21,1.58V9.92c0,.85-.35,1.26-1.06,1.26a1.74,1.74,0,0,1-1.27-.71V7.12l-.81.21V9.92c0,.85-.36,1.26-1.09,1.26a1.74,1.74,0,0,1-1.18-.63,2.64,2.64,0,0,0,0-.29V7.12l-.8.21,0,2.61c0,.86-.36,1.28-1.1,1.28h-7a2.35,2.35,0,0,1-.87-.16l2.31-2.32v0a1.82,1.82,0,0,0-.84-1.41A3.32,3.32,0,0,0,68,6.61a3.42,3.42,0,0,0-2.14.7A1.82,1.82,0,0,0,65,8.72v0h0c1.38,1.41,2.08,2.12,2.29,2.31a2.48,2.48,0,0,1-.88.16h-4v-2a3.11,3.11,0,0,0-.65-2,2,2,0,0,0-1.65-.79h0L60,7.28l.07,0a1,1,0,0,1,.48-.13c.63,0,1,.77,1,1.92v2l0,.2H58.36l-.16.67h8.32A3.64,3.64,0,0,0,68,11.53a3.25,3.25,0,0,0,1.46.36H76.8A1.55,1.55,0,0,0,78,11.44a1.48,1.48,0,0,0,.29-.43,2,2,0,0,0,1.63.88,1.44,1.44,0,0,0,1.46-1,2,2,0,0,0,1.68,1,1.48,1.48,0,0,0,1.18-.49,1.53,1.53,0,0,0,1.23.49h2.47a1.55,1.55,0,0,0,1.63-1.73V3.87l-1,.26ZM66.45,7.8a2.74,2.74,0,0,1,3,0,1.09,1.09,0,0,1,.52.88l-2,2-.8-.78L65.91,8.68a1.17,1.17,0,0,1,.54-.88" transform="translate(-0.07 -0.02)"/><polygon class="cls-3" points="91.83 3.86 90.71 3.95 90.89 5.37 90.89 11.87 91.71 11.87 91.71 5.37 91.83 3.86"/></g></g></g></svg>