<svg xmlns="http://www.w3.org/2000/svg" xmlns:xlink="http://www.w3.org/1999/xlink" viewBox="0 0 163 163"><defs><style>.cls-1,.cls-4,.cls-6{fill:none;}.cls-2{clip-path:url(#clip-path);}.cls-3{fill:#f1881a;}.cls-4,.cls-6{stroke:#fff;stroke-width:2.16px;}.cls-5{fill:#fff;}.cls-6{stroke-linecap:round;}</style><clipPath id="clip-path"><rect class="cls-1" width="163" height="163"/></clipPath></defs><title>scroll-or-swipe_1</title><g id="Layer_2" data-name="Layer 2"><g id="Layer_1-2" data-name="Layer 1"><g class="cls-2"><path class="cls-3" d="M81.5,163A81.5,81.5,0,1,0,0,81.5,81.5,81.5,0,0,0,81.5,163"/><rect class="cls-4" x="72.85" y="28.45" width="17.3" height="26.31" rx="7.21"/><path class="cls-5" d="M87.34,23.84a1.19,1.19,0,0,1-.37.87,1.23,1.23,0,0,1-1.74,0L81.5,21l-3.73,3.73a1.23,1.23,0,0,1-1.74,0A1.21,1.21,0,0,1,76,23l4.6-4.61A1.24,1.24,0,0,1,81.5,18a1.27,1.27,0,0,1,.88.36L87,23a1.22,1.22,0,0,1,.36.87"/></g><line class="cls-6" x1="81.5" y1="33.86" x2="81.5" y2="37.46"/><g class="cls-2"><path class="cls-5" d="M118,92c0,1.34-.59,1.93-1.89,1.93a.8.8,0,1,0,0,1.6A3.25,3.25,0,0,0,119.64,92V86.39a.82.82,0,1,0-1.63,0Zm-3.9,0V86.39a.84.84,0,0,0-.82-.82.82.82,0,0,0-.81.82V92c0,1.34-.6,1.93-1.89,1.93h-.26l-2-6.27a.83.83,0,0,0-.78-.61.81.81,0,0,0-.82.8.71.71,0,0,0,0,.2l1.84,5.88h-2.15a.8.8,0,1,0,0,1.6h4.09a3.4,3.4,0,0,0,2.84-1.24,2.85,2.85,0,0,0,2.69,1.24v-1.6c-1.43,0-2-.59-2-1.93M103,88.2a.83.83,0,0,0-.81.82V92c0,1.33-.51,1.93-1.35,1.93s-1.47-.63-1.47-1.93V89.46a.84.84,0,0,0-.82-.83.82.82,0,0,0-.81.83V92c0,1.34-.52,1.93-1.35,1.93s-1.47-.63-1.47-1.93V89.47a.83.83,0,0,0-.83-.82.82.82,0,0,0-.81.82V92c0,1.34-.59,1.93-1.89,1.93a.8.8,0,1,0,0,1.6,3.41,3.41,0,0,0,2.84-1.22,2.25,2.25,0,0,0,2.16,1.22,2.75,2.75,0,0,0,2.32-1.15,2.28,2.28,0,0,0,2.13,1.15c1.77,0,3-1.31,3-3.53V89a.84.84,0,0,0-.83-.82M89.35,92V90a.84.84,0,0,0-.82-.83.82.82,0,0,0-.81.83v2c0,1.34-.6,1.93-1.89,1.93a.78.78,0,0,0-.88.77.83.83,0,0,0,.88.83,3.42,3.42,0,0,0,2.85-1.24,2.82,2.82,0,0,0,2.68,1.24v-1.6c-1.43,0-2-.59-2-1.93m.43-3.9a.84.84,0,0,0,.93-.81v-.08a.94.94,0,0,0-1.86,0v.08a.85.85,0,0,0,.93.81m-2.43,0a.84.84,0,0,0,.93-.81v-.08a.94.94,0,0,0-1.86,0v.08a.85.85,0,0,0,.93.81m-3.51,4.38c0-1.5-1-2.62-2.75-3.23a8.49,8.49,0,0,0-2-.47,10.56,10.56,0,0,1,4-1.6.88.88,0,0,0,.81-.81.8.8,0,0,0-.85-.77.75.75,0,0,0-.21,0,10.79,10.79,0,0,0-5.14,2.25,1.27,1.27,0,0,0-.43,1,1.29,1.29,0,0,0,1,1.34l.92.12a5.41,5.41,0,0,1,2.3.84,1.64,1.64,0,0,1,.72,1.39c0,1-.55,1.37-2.09,1.37H76.81a.8.8,0,1,0,0,1.6h3.31a3.91,3.91,0,0,0,3.12-1.11,2.85,2.85,0,0,0,2.59,1.11v-1.6c-1.24,0-1.87-.44-2-1.45m-9-.48V89A.84.84,0,0,0,74,88.2a.83.83,0,0,0-.81.82V92c0,1.33-.51,1.93-1.35,1.93s-1.47-.63-1.47-1.93V89.46a.84.84,0,0,0-.82-.83.82.82,0,0,0-.81.83V92c0,1.34-.51,1.93-1.35,1.93s-1.47-.63-1.47-1.93V89.47a.83.83,0,0,0-.83-.82.82.82,0,0,0-.81.82V92c0,1.34-.59,1.93-1.89,1.93a.8.8,0,1,0,0,1.6,3.41,3.41,0,0,0,2.84-1.22,2.25,2.25,0,0,0,2.16,1.22,2.75,2.75,0,0,0,2.32-1.15,2.28,2.28,0,0,0,2.13,1.15,2.73,2.73,0,0,0,2.35-1.19,2.87,2.87,0,0,0,2.65,1.19v-1.6c-1.43,0-2-.59-2-1.93m-4.52-5.64a.94.94,0,0,0,1.86,0v-.08a.94.94,0,0,0-1.86,0Zm-2.37.81a.84.84,0,0,0,.93-.81v-.08a.94.94,0,0,0-1.86,0v.08a.85.85,0,0,0,.93.81m1.64-1.89a.85.85,0,0,0,.93-.81v-.08a.95.95,0,0,0-1.87,0v.08a.85.85,0,0,0,.94.81M60.49,92V86.39a.84.84,0,0,0-.83-.82.83.83,0,0,0-.81.82V92a3.24,3.24,0,0,0,3.51,3.53v-1.6c-1.28,0-1.87-.6-1.87-1.93m-7,1.93a1.88,1.88,0,0,1-1.91-2,1.91,1.91,0,0,1,1.88-2,1.94,1.94,0,0,1,1.89,2.08,1.83,1.83,0,0,1-1.86,2m3.48-2a3.43,3.43,0,0,0-3.48-3.65A3.48,3.48,0,0,0,50,91.89a3.92,3.92,0,0,0,.52,2H47.87C46,93.88,45,92.89,45,91v-.33a.84.84,0,0,0-.82-.83.82.82,0,0,0-.81.83V91c0,2.89,1.62,4.53,4.51,4.53h5.75A3.43,3.43,0,0,0,57,91.85M53.54,87.4a.85.85,0,0,0,.93-.81v-.08a.95.95,0,0,0-1.87,0v.08a.85.85,0,0,0,.94.81"/><path class="cls-5" d="M143.47,79.28a.83.83,0,0,0,.82-.83V70.19a.82.82,0,1,0-1.63,0v8.26a.83.83,0,0,0,.81.83M140,72a.83.83,0,0,0-.81.82v2.93c0,1.33-.51,1.93-1.35,1.93s-1.47-.63-1.47-1.93V73.26a.84.84,0,0,0-.82-.83.82.82,0,0,0-.81.83v2.49c0,1.34-.52,1.93-1.35,1.93s-1.47-.63-1.47-1.93V73.27a.83.83,0,0,0-.83-.82.82.82,0,0,0-.81.82v2.48c0,1.34-.59,1.93-1.89,1.93a.8.8,0,1,0,0,1.6,3.41,3.41,0,0,0,2.84-1.22,2.25,2.25,0,0,0,2.16,1.22,2.75,2.75,0,0,0,2.32-1.15,2.28,2.28,0,0,0,2.13,1.15c1.77,0,3-1.31,3-3.53V72.82A.84.84,0,0,0,140,72m-12.32,5.68c-.6,0-.67-.43-.77-1.05a5.31,5.31,0,0,0-2-3.74,5.44,5.44,0,0,0-3.1-.86,7.56,7.56,0,0,0-1,0,.84.84,0,0,0-.8.83.81.81,0,0,0,1,.76c.23,0,.44,0,.67,0a4,4,0,0,1,2.22.59c.69.44,1,1.22,1.31,2.68a5.79,5.79,0,0,0,.17.78h-5.91a.79.79,0,0,0-.81.77.84.84,0,0,0,.82.83h8.83v-1.6Zm-16,2.81a.84.84,0,0,0-.94.8v.08a.94.94,0,0,0,1.87,0v-.08a.84.84,0,0,0-.93-.8m5.88-4.74v-2a.84.84,0,0,0-.82-.83.82.82,0,0,0-.81.83v2a1.92,1.92,0,0,1-.49,1.48,1.84,1.84,0,0,1-1.4.45h-3.59a2.84,2.84,0,0,1-2.18-.75,3,3,0,0,1-.71-2.18v-.32a.83.83,0,0,0-.81-.82.84.84,0,0,0-.83.82v.32A4.65,4.65,0,0,0,107,78a4.52,4.52,0,0,0,3.42,1.27H114a3.71,3.71,0,0,0,2.4-.77,2.92,2.92,0,0,0,.46-.47,2.79,2.79,0,0,0,2.67,1.24v-1.6c-1.43,0-2-.59-2-1.93m-17,3.53a.84.84,0,0,0,.83-.83V70.19a.84.84,0,0,0-.83-.82.83.83,0,0,0-.81.82v8.26a.83.83,0,0,0,.81.83m-6.07-1.6a2,2,0,0,1,0-4.05c1,0,1.77.72,1.85,2.14a2,2,0,0,1-1.82,1.91m0-5.68A3.57,3.57,0,0,0,91,75.78a3.25,3.25,0,0,0,3.2,3.5,2.44,2.44,0,0,0,2.1-1.1c-.13,2.18-.81,2.85-2.56,2.85h-.55a.78.78,0,0,0,0,1.56c.2,0,.42,0,.62,0,2.77,0,4.12-1.56,4.12-5.27V76c0-2.5-1.47-4-3.43-4M83,77.68a1.88,1.88,0,0,1-1.9-2,1.91,1.91,0,0,1,1.88-2,1.94,1.94,0,0,1,1.89,2.08,1.83,1.83,0,0,1-1.87,2M83,72a3.48,3.48,0,0,0-3.51,3.69,3.93,3.93,0,0,0,.53,2H78.6a.8.8,0,1,0,0,1.6h4.34A3.64,3.64,0,0,0,83,72m1.22-.8a.84.84,0,0,0,.93-.81v-.08a.94.94,0,0,0-1.86,0v.08a.84.84,0,0,0,.93.81m-2.43,0a.84.84,0,0,0,.93-.81v-.08a.94.94,0,0,0-1.86,0v.08a.84.84,0,0,0,.93.81M73,77.72a2.76,2.76,0,0,1-1.75-.66v-1c0-1.6.7-2.48,1.87-2.48A2.06,2.06,0,0,1,73,77.72m3.55-2v0A3.49,3.49,0,0,0,73.14,72c-2.06,0-3.49,1.61-3.49,4.11v2.78c0,1.68-.33,2.14-1.45,2.14a.79.79,0,1,0,0,1.58c2.15,0,3.08-1.13,3.09-3.72v-.15a3.77,3.77,0,0,0,2,.55A3.26,3.26,0,0,0,75.9,78a2.82,2.82,0,0,0,2.7,1.28v-1.6c-1.43,0-2-.59-2-1.93M60.41,81.29v.08a.94.94,0,0,0,1.86,0v-.08a.94.94,0,0,0-1.86,0m.74-5.54c0,1.34-.59,1.93-1.89,1.93a.78.78,0,0,0-.88.77.83.83,0,0,0,.88.83,3.25,3.25,0,0,0,3.52-3.53v-2a.84.84,0,0,0-.82-.83.82.82,0,0,0-.81.83Zm-3.77,0V70.19a.84.84,0,0,0-.82-.82.82.82,0,0,0-.81.82v5.56a3.24,3.24,0,0,0,3.51,3.53v-1.6c-1.28,0-1.88-.6-1.88-1.93m-5.1,0c0,1.34-.59,1.93-1.89,1.93a.8.8,0,1,0,0,1.6,3.25,3.25,0,0,0,3.52-3.53V70.19a.83.83,0,0,0-.82-.82.82.82,0,0,0-.81.82Zm-3.9,0v-2a.84.84,0,0,0-.83-.83.83.83,0,0,0-.81.83v2c0,1.34-.59,1.93-1.89,1.93a.78.78,0,0,0-.87.77.83.83,0,0,0,.87.83A3.4,3.4,0,0,0,47.7,78a2.85,2.85,0,0,0,2.69,1.24v-1.6c-1.43,0-2-.59-2-1.93m.43-3.9a.84.84,0,0,0,.93-.81V71a.94.94,0,0,0-1.86,0V71a.84.84,0,0,0,.93.81m-2.43,0a.84.84,0,0,0,.93-.81V71a.94.94,0,0,0-1.86,0V71a.84.84,0,0,0,.93.81m-6.94,5.86a2.71,2.71,0,0,1-2-1c.07-.37.14-.73.3-1.31.32-1.15.81-1.72,1.66-1.72a1.86,1.86,0,0,1,1.82,2,1.83,1.83,0,0,1-1.78,2M42.84,76a1.56,1.56,0,0,0,0-.3A3.5,3.5,0,0,0,39.4,72c-1.63,0-2.77,1.14-3.25,3.09A12.54,12.54,0,0,1,35.66,77a1.18,1.18,0,0,1-1.17.68.78.78,0,0,0-.88.77.83.83,0,0,0,.88.83,2.71,2.71,0,0,0,2.33-1.11,3.82,3.82,0,0,0,2.66,1.13A3.29,3.29,0,0,0,42.14,78a2.82,2.82,0,0,0,2.72,1.3v-1.6c-1.37,0-2-.54-2-1.72m-8.35,1.72c-1.43,0-2-.59-2-1.93v-2a.84.84,0,0,0-.83-.84.81.81,0,0,0-.81.84v5.72c0,.88-.12,1.19-.61,1.19a2.54,2.54,0,0,1-.47-.07h-.17a.77.77,0,0,0-.22,1.51,3.74,3.74,0,0,0,.91.12c1.39,0,2.2-1,2.2-2.74v-.73a3.41,3.41,0,0,0,2,.52Zm-8.36,3.61v.08a.94.94,0,0,0,1.86,0v-.08a.94.94,0,0,0-1.86,0m-2.43,0v.08a.94.94,0,0,0,1.86,0v-.08a.94.94,0,0,0-1.86,0m1.66-5.54c0,1.34-.59,1.93-1.89,1.93a.78.78,0,0,0-.88.77.83.83,0,0,0,.88.83A3.25,3.25,0,0,0,27,75.75v-2a.82.82,0,1,0-1.63,0Zm-1.89,1.93c-1.43,0-2-.59-2-1.93v-2a.83.83,0,0,0-.82-.84.81.81,0,0,0-.81.84v5.72c0,.88-.12,1.19-.61,1.19a2.54,2.54,0,0,1-.47-.07h-.18a.76.76,0,0,0-.78.77.75.75,0,0,0,.56.74,3.86,3.86,0,0,0,.91.12c1.39,0,2.2-1,2.2-2.74v-.73a3.45,3.45,0,0,0,2,.52Z"/><path class="cls-5" d="M114.72,129.55h4.94a.66.66,0,0,0,0-1.32h-4.21V126h3.61a.66.66,0,0,0,.66-.65.67.67,0,0,0-.66-.67h-3.61v-2.19h4.15a.66.66,0,0,0,0-1.32h-4.88a.74.74,0,0,0-.75.75v6.91a.73.73,0,0,0,.75.74m-8-4.23V122.5h2.15c1.09,0,1.74.49,1.74,1.39v0c0,.86-.67,1.41-1.73,1.41Zm-1.47,3.56a.74.74,0,0,0,1.47,0v-2.26h1.86l2,2.61a.85.85,0,0,0,.72.38.69.69,0,0,0,.71-.68.84.84,0,0,0-.24-.57l-1.61-2a2.49,2.49,0,0,0,1.91-2.51v0a2.56,2.56,0,0,0-.69-1.82,3.43,3.43,0,0,0-2.43-.84h-3a.73.73,0,0,0-.74.75Zm-6.17-.55a2.87,2.87,0,0,1-2.86-3v0a2.85,2.85,0,0,1,2.84-3,2.88,2.88,0,0,1,2.85,3v0a2.82,2.82,0,0,1-2.83,3m0,1.37a4.3,4.3,0,0,0,4.4-4.35v0a4.39,4.39,0,0,0-8.78,0v0a4.27,4.27,0,0,0,4.38,4.32m-11-.89a.73.73,0,0,0,.74.74h4.54a.67.67,0,0,0,0-1.34h-3.8v-6.38a.74.74,0,0,0-1.48,0Zm-6.54-3.29v-3h1.72c1.1,0,1.81.51,1.81,1.5v0c0,.88-.7,1.5-1.81,1.5Zm-1.47,3.36a.74.74,0,0,0,1.47,0v-2h1.67c1.85,0,3.36-1,3.36-2.86v0c0-1.69-1.23-2.81-3.19-2.81H80.88a.73.73,0,0,0-.74.75Zm-9,.05a.67.67,0,0,0,.67.68.85.85,0,0,0,.72-.41l2.22-2.89L77,129.25a.76.76,0,0,0,.67.36.72.72,0,0,0,.74-.72.94.94,0,0,0-.23-.55l-2.47-3.08,2.35-2.93a.89.89,0,0,0,.23-.56.69.69,0,0,0-.68-.68.86.86,0,0,0-.72.41l-2.1,2.75-2.12-2.8a.76.76,0,0,0-.67-.36.71.71,0,0,0-.73.72,1,1,0,0,0,.23.56l2.35,2.91-2.5,3.1a.9.9,0,0,0-.21.55m-6.87.62h4.94a.66.66,0,0,0,0-1.32H65V126h3.61a.66.66,0,0,0,.66-.65.67.67,0,0,0-.66-.67H65v-2.19h4.15a.66.66,0,0,0,0-1.32H64.27a.73.73,0,0,0-.74.75v6.91a.73.73,0,0,0,.74.74m-10.51-1.22a2.87,2.87,0,0,1-2.86-3v0a2.85,2.85,0,0,1,2.83-3,2.88,2.88,0,0,1,2.86,3v0a2.82,2.82,0,0,1-2.83,3m0,1.37a4.3,4.3,0,0,0,4.41-4.35v0a4.39,4.39,0,0,0-8.78,0v0a4.26,4.26,0,0,0,4.37,4.32m-9.26-.82a.75.75,0,0,0,1.49,0v-6.36h2a.68.68,0,0,0,.67-.68.69.69,0,0,0-.67-.69H42.43a.69.69,0,0,0-.68.69.68.68,0,0,0,.68.68h2Z"/><path class="cls-5" d="M133.34,115.15h4.94a.66.66,0,0,0,0-1.32h-4.21v-2.25h3.61a.66.66,0,0,0,.66-.65.67.67,0,0,0-.66-.67h-3.61v-2.19h4.15a.66.66,0,0,0,0-1.32h-4.88a.73.73,0,0,0-.74.75v6.91a.73.73,0,0,0,.74.74m-7.28-4v-3h1.71c1.11,0,1.82.51,1.82,1.5v0c0,.88-.7,1.5-1.82,1.5Zm-1.48,3.36a.74.74,0,0,0,1.48,0v-2h1.67c1.84,0,3.35-1,3.35-2.86v0c0-1.69-1.22-2.81-3.19-2.81h-2.56a.74.74,0,0,0-.75.75Zm-3.72,0a.74.74,0,0,0,1.48,0v-7a.74.74,0,1,0-1.48,0Zm-11.3.18a.82.82,0,0,0,.77.61h.14a.81.81,0,0,0,.77-.61l1.87-5.48,1.87,5.48a.8.8,0,0,0,.76.61h.14a.82.82,0,0,0,.77-.61l2.48-7a.73.73,0,0,0,.07-.3.72.72,0,0,0-.73-.71.76.76,0,0,0-.72.53L115.82,113l-1.89-5.74a.78.78,0,0,0-.75-.59h-.11a.78.78,0,0,0-.74.59l-1.9,5.74-1.93-5.77a.76.76,0,0,0-1.49.18.88.88,0,0,0,.06.29Zm-6.49.61c1.76,0,3-.93,3-2.5v0c0-1.39-.91-2-2.68-2.46-1.62-.38-2-.67-2-1.32v0c0-.56.51-1,1.37-1a3.47,3.47,0,0,1,1.93.64.73.73,0,0,0,.39.1.68.68,0,0,0,.69-.68.67.67,0,0,0-.32-.59,4.66,4.66,0,0,0-2.66-.78c-1.67,0-2.87,1-2.87,2.44v0c0,1.55,1,2.08,2.79,2.51,1.56.36,1.9.69,1.9,1.29v0c0,.62-.58,1.06-1.49,1.06a3.65,3.65,0,0,1-2.35-.87.71.71,0,0,0-.43-.13.69.69,0,0,0-.7.68.7.7,0,0,0,.29.57,5.26,5.26,0,0,0,3.16,1m-13.75-4.35V108.1h2.15c1.1,0,1.74.49,1.74,1.39v0c0,.86-.67,1.41-1.72,1.41Zm-1.47,3.56a.74.74,0,0,0,1.47,0v-2.26h1.87l2,2.61a.82.82,0,0,0,.72.38.68.68,0,0,0,.7-.68.84.84,0,0,0-.24-.57l-1.6-2a2.49,2.49,0,0,0,1.9-2.51v0a2.56,2.56,0,0,0-.69-1.82,3.43,3.43,0,0,0-2.43-.84h-3a.73.73,0,0,0-.74.75Zm-6.17-.55a2.87,2.87,0,0,1-2.86-3v0a2.85,2.85,0,1,1,5.69,0v0a2.82,2.82,0,0,1-2.83,3m0,1.37a4.3,4.3,0,0,0,4.4-4.35v0a4.39,4.39,0,0,0-8.78,0v0a4.27,4.27,0,0,0,4.38,4.32m-15-.89a.73.73,0,0,0,.75.74H71.9a.67.67,0,1,0,0-1.34H68.1v-6.38a.74.74,0,1,0-1.48,0Zm-7.43,0a.73.73,0,0,0,.75.74h4.53a.67.67,0,1,0,0-1.34h-3.8v-6.38a.73.73,0,0,0-.73-.74.74.74,0,0,0-.75.74ZM53,113.93a2.87,2.87,0,0,1-2.86-3v0A2.84,2.84,0,0,1,53,108a2.88,2.88,0,0,1,2.86,3v0a2.83,2.83,0,0,1-2.83,3m0,1.37A4.31,4.31,0,0,0,57.41,111v0A4.26,4.26,0,0,0,53,106.61,4.31,4.31,0,0,0,48.62,111v0A4.27,4.27,0,0,0,53,115.3m-11.21-4.38V108.1h2.15c1.09,0,1.74.49,1.74,1.39v0c0,.86-.67,1.41-1.73,1.41Zm-1.47,3.56a.74.74,0,0,0,1.47,0v-2.26h1.86l2.05,2.61a.82.82,0,0,0,.71.38.69.69,0,0,0,.71-.68.84.84,0,0,0-.24-.57l-1.61-2a2.49,2.49,0,0,0,1.91-2.51v0a2.56,2.56,0,0,0-.69-1.82,3.43,3.43,0,0,0-2.43-.84h-3a.73.73,0,0,0-.74.75Zm-5,.82a4.31,4.31,0,0,0,3-1.13.72.72,0,0,0,.24-.53A.7.7,0,0,0,38,113a.65.65,0,0,0-.44.17,3,3,0,0,1-2.1.8,2.83,2.83,0,0,1-2.77-3v0a2.82,2.82,0,0,1,2.77-3,3,3,0,0,1,2,.76.75.75,0,0,0,.45.14.72.72,0,0,0,.44-1.3,4.36,4.36,0,0,0-2.88-1A4.25,4.25,0,0,0,31.09,111v0a4.22,4.22,0,0,0,4.27,4.32m-8.64,0c1.77,0,3-.93,3-2.5v0c0-1.39-.91-2-2.69-2.46-1.62-.38-2-.67-2-1.32v0c0-.56.5-1,1.37-1a3.5,3.5,0,0,1,1.93.64.72.72,0,0,0,.38.1.69.69,0,0,0,.38-1.27,4.67,4.67,0,0,0-2.67-.78c-1.67,0-2.86,1-2.86,2.44v0c0,1.55,1,2.08,2.79,2.51,1.56.36,1.9.69,1.9,1.29v0c0,.62-.58,1.06-1.49,1.06a3.65,3.65,0,0,1-2.35-.87A.72.72,0,0,0,24,113a.68.68,0,0,0-.69.68.7.7,0,0,0,.29.57,5.23,5.23,0,0,0,3.15,1"/></g></g></g></svg>